<svg width="81" height="85" viewBox="0 0 81 85" fill="none" xmlns="http://www.w3.org/2000/svg">
<path fill-rule="evenodd" clip-rule="evenodd" d="M37.6195 2.35236L37.5608 2.40252C37.1714 2.14802 36.7057 2 36.2052 2C34.8383 2 33.7302 3.10429 33.7302 4.46651C33.7302 4.5135 33.7919 5.10365 33.7945 5.15C33.7945 11.9 32.8945 16.85 24.1838 22.0844L24.2357 22.072C15.9176 27.3172 10.3945 36.5668 10.3945 47.1019C10.3945 63.4485 23.6917 76.7 40.0945 76.7C56.4974 76.7 69.7945 63.4485 69.7945 47.1019C69.7945 38.6373 66.6711 31.355 60.9552 25.9604L60.3605 25.608C60.0245 25.3854 59.6211 25.2557 59.1874 25.2557C58.0748 25.2557 57.1622 26.1093 57.0731 27.1952C56.4551 28.5766 56.2638 31.25 53.2382 34.4723C52.8124 34.9258 52.1119 34.5703 52.1425 33.95C53.5945 27.65 52.681 21.4872 52.1425 20.0404L52.0474 19.9984C51.5787 17.1807 48.5331 8.7501 37.6195 2.35236Z" fill="#5477D8"/>
<mask id="mask0_287_6107" style="mask-type:alpha" maskUnits="userSpaceOnUse" x="10" y="2" width="60" height="75">
<path fill-rule="evenodd" clip-rule="evenodd" d="M37.6186 2.35236L37.5598 2.40252C37.1705 2.14802 36.7047 2 36.2043 2C34.8374 2 33.7293 3.10429 33.7293 4.46651C33.7293 4.5135 33.791 5.10365 33.7936 5.15C33.7936 11.9 32.8936 16.85 24.1828 22.0844L24.2347 22.072C15.9167 27.3172 10.3936 36.5668 10.3936 47.1019C10.3936 63.4485 23.6907 76.7 40.0936 76.7C56.4964 76.7 69.7936 63.4485 69.7936 47.1019C69.7936 38.6373 66.6701 31.355 60.9543 25.9604L60.3595 25.608C60.0235 25.3854 59.6201 25.2557 59.1864 25.2557C58.0738 25.2557 57.1612 26.1093 57.0721 27.1952C56.4541 28.5766 56.2629 31.25 53.2372 34.4723C52.8114 34.9258 52.1109 34.5703 52.1415 33.95C53.5936 27.65 52.68 21.4872 52.1415 20.0404L52.0464 19.9984C51.5777 17.1807 48.5322 8.7501 37.6186 2.35236Z" fill="#5477D8"/>
</mask>
<g mask="url(#mask0_287_6107)">
<path d="M42.5815 78.4999C12.194 35.2999 70.694 35.2999 39.194 2.8999C55.7496 12.2389 56.3811 27.0167 56.3995 27.867C56.3995 27.8664 56.3995 27.8658 56.3995 27.8652C56.3995 26.9188 56.876 24.0795 59.7349 24.5527C64.4997 25.4991 70.694 37.3297 70.694 46.3209C70.2175 69.0355 50.6817 78.0267 42.5815 78.4999Z" fill="#84A5FF"/>
</g>
<path d="M49.9939 66.35C49.9939 72.0661 45.3601 76.7 39.6439 76.7C33.9278 76.7 29.2939 72.0661 29.2939 66.35C29.2939 60.6339 33.9278 56 39.6439 56C45.3601 56 49.9939 60.6339 49.9939 66.35Z" fill="#FFCC25"/>
<path d="M48.1941 68.6002C48.1941 73.0737 44.5676 76.7002 40.0941 76.7002C35.6206 76.7002 31.9941 73.0737 31.9941 68.6002C31.9941 64.1267 35.6206 60.5002 40.0941 60.5002C44.5676 60.5002 48.1941 64.1267 48.1941 68.6002Z" fill="#FFE07C"/>
<path fill-rule="evenodd" clip-rule="evenodd" d="M28.5952 5.17302C29.328 5.03562 30.0335 5.5183 30.1709 6.25111C30.9648 10.4852 29.041 13.6154 26.3566 16.2402C25.0255 17.5416 23.4607 18.7674 21.8803 19.9755C21.6419 20.1578 21.4032 20.3396 21.1643 20.5215C19.7994 21.5611 18.4318 22.6027 17.1226 23.7249C13.8348 26.543 11.425 29.9892 9.80142 33.2285C8.16878 36.4858 7.37384 39.447 7.24032 41.2496C7.18524 41.9932 6.53783 42.5513 5.79428 42.4962C5.05073 42.4411 4.49262 41.7937 4.5477 41.0502C4.71417 38.8028 5.64493 35.4956 7.38765 32.0186C9.13939 28.5237 11.7546 24.7699 15.3654 21.6749C16.7391 20.4975 18.1769 19.4026 19.5397 18.3648C19.7758 18.1851 20.0097 18.007 20.2405 17.8305C21.8242 16.6199 23.2687 15.4832 24.4689 14.3096C26.847 11.9844 28.0732 9.71465 27.5171 6.74869C27.3797 6.01588 27.8624 5.31043 28.5952 5.17302ZM75.194 46.5498C75.9396 46.5498 76.544 47.1542 76.544 47.8998C76.544 67.0365 61.0307 82.5498 41.894 82.5498C41.1484 82.5498 40.544 81.9454 40.544 81.1998C40.544 80.4542 41.1484 79.8498 41.894 79.8498C59.5395 79.8498 73.844 65.5453 73.844 47.8998C73.844 47.1542 74.4484 46.5498 75.194 46.5498Z" fill="#00EFD8"/>
</svg>
