<svg width="83" height="83" viewBox="0 0 83 83" fill="none" xmlns="http://www.w3.org/2000/svg">
<g clip-path="url(#clip0_232_2453)">
<path d="M3.5533 81.1136C1.90005 81.8861 0.184687 80.1708 0.957227 78.5175L37.0342 1.31203C37.6078 0.0845865 39.2264 -0.200157 40.1844 0.757866L81.313 41.8864C82.271 42.8444 81.9862 44.4631 80.7588 45.0366L3.5533 81.1136Z" fill="#84A5FF"/>
<path d="M4.5532 79.1673C3.00574 80.7167 0.471589 78.9364 1.40453 76.9552L37.0304 1.30077C37.6066 0.0772369 39.2219 -0.204448 40.1782 0.751843L60.1566 20.7303C60.919 21.4926 60.9194 22.7285 60.1575 23.4913L4.5532 79.1673Z" fill="#5477D8"/>
<path d="M74.1711 6.48514C75.0139 6.0557 75.9139 6.95566 75.4844 7.79849L66.2747 25.8737C66.0826 26.2506 66.1551 26.7083 66.4542 27.0074L80.7988 41.352C81.4676 42.0209 80.8898 43.1549 79.9555 43.0069L59.9191 39.8334C59.5012 39.7673 59.0883 39.9776 58.8963 40.3546L49.6865 58.4297C49.2571 59.2726 48 59.0735 47.852 58.1392L44.6785 38.1027C44.6124 37.6849 44.2847 37.3572 43.8669 37.291L23.8304 34.1175C22.8961 33.9696 22.697 32.7125 23.5398 32.2831L41.615 23.0733C41.9919 22.8812 42.2023 22.4683 42.1361 22.0505L38.9627 2.01401C38.8147 1.07973 39.9487 0.501916 40.6176 1.17079L54.9621 15.5153C55.2612 15.8145 55.719 15.887 56.0959 15.6949L74.1711 6.48514Z" fill="#FFCC25"/>
<mask id="mask0_232_2453" style="mask-type:alpha" maskUnits="userSpaceOnUse" x="20" y="0" width="57" height="38">
<path d="M76.0858 5.9488L44.3757 37.6589L30.2706 36.1294L20.9941 33.6882L30.2706 19.5294L39.5471 0L54.1941 11.2294L76.0858 5.9488Z" fill="#FFE07C"/>
</mask>
<g mask="url(#mask0_232_2453)">
<path d="M74.1711 6.48514C75.0139 6.0557 75.9139 6.95566 75.4844 7.79849L66.2747 25.8737C66.0826 26.2506 66.1551 26.7083 66.4542 27.0074L80.7988 41.352C81.4676 42.0209 80.8898 43.1549 79.9555 43.0069L59.9191 39.8334C59.5012 39.7673 59.0883 39.9776 58.8963 40.3546L49.6865 58.4297C49.2571 59.2726 48 59.0735 47.852 58.1392L44.6785 38.1027C44.6124 37.6849 44.2847 37.3572 43.8669 37.291L23.8304 34.1175C22.8961 33.9696 22.697 32.7125 23.5398 32.2831L41.615 23.0733C41.9919 22.8812 42.2023 22.4683 42.1361 22.0505L38.9627 2.01401C38.8147 1.07973 39.9487 0.501916 40.6176 1.17079L54.9621 15.5153C55.2612 15.8145 55.719 15.887 56.0959 15.6949L74.1711 6.48514Z" fill="#FFE07C"/>
</g>
<path fill-rule="evenodd" clip-rule="evenodd" d="M5.2681 53.1194C4.52784 52.7932 4.19214 51.9287 4.5183 51.1884L20.8787 14.0564C21.2049 13.3162 22.0694 12.9805 22.8097 13.3066C23.5499 13.6328 23.8856 14.4973 23.5595 15.2376L7.19904 52.3696C6.87288 53.1098 6.00837 53.4455 5.2681 53.1194Z" fill="#00EFD8"/>
<path fill-rule="evenodd" clip-rule="evenodd" d="M29.7148 74.7127C29.4079 73.9642 29.7659 73.1087 30.5144 72.8018L68.0583 57.4099C68.8067 57.1031 69.6623 57.4611 69.9691 58.2096C70.276 58.9581 69.9179 59.8136 69.1695 60.1204L31.6256 75.5123C30.8772 75.8191 30.0216 75.4611 29.7148 74.7127Z" fill="#00EFD8"/>
</g>
<defs>
<clipPath id="clip0_232_2453">
<rect width="83" height="82.0235" fill="white"/>
</clipPath>
</defs>
</svg>
