<svg width="60" height="60" viewBox="0 0 60 60" fill="none" xmlns="http://www.w3.org/2000/svg">
<path d="M2.56931 58.6361C1.37419 59.1945 0.134169 57.9545 0.692631 56.7594L26.7724 0.948171C27.187 0.0608622 28.3571 -0.144976 29.0496 0.54757L58.7811 30.279C59.4737 30.9716 59.2678 32.1417 58.3805 32.5563L2.56931 58.6361Z" fill="#84A5FF"/>
<path d="M3.29243 57.2295C2.17378 58.3496 0.341864 57.0626 1.01628 55.6304L26.7699 0.940474C27.1865 0.0559927 28.3541 -0.147635 29.0454 0.54366L43.4877 14.9859C44.0388 15.537 44.0391 16.4304 43.4883 16.9818L3.29243 57.2295Z" fill="#5477D8"/>
<path d="M51.3082 7.99088C51.758 7.76168 52.2383 8.24201 52.0091 8.69186L47.0936 18.3391C46.9911 18.5403 47.0298 18.7845 47.1894 18.9442L54.8456 26.6003C55.2025 26.9573 54.8941 27.5625 54.3955 27.4836L43.7015 25.7898C43.4784 25.7545 43.2581 25.8667 43.1556 26.0679L38.2401 35.7151C38.0109 36.165 37.3399 36.0587 37.2609 35.5601L35.5671 24.866C35.5319 24.6431 35.357 24.4682 35.134 24.4328L24.4399 22.739C23.9413 22.6601 23.835 21.9891 24.2848 21.76L33.9321 16.8444C34.1332 16.7419 34.2455 16.5215 34.2102 16.2985L32.5165 5.60452C32.4375 5.10587 33.0427 4.79747 33.3997 5.15447L41.0558 12.8105C41.2154 12.9702 41.4598 13.0089 41.6609 12.9064L51.3082 7.99088Z" fill="#FFCC25"/>
<mask id="mask0_682_9611" style="mask-type:alpha" maskUnits="userSpaceOnUse" x="15" y="0" width="41" height="28">
<path d="M55.0011 4.30034L32.0781 27.2233L21.8817 26.1176L15.1758 24.3529L21.8817 14.1176L28.5876 0L39.1758 8.11764L55.0011 4.30034Z" fill="#FFE07C"/>
</mask>
<g mask="url(#mask0_682_9611)">
<path d="M50.5463 8.79792C50.9672 8.58351 51.4165 9.03285 51.2021 9.45367L46.6037 18.4785C46.5078 18.6667 46.544 18.8952 46.6934 19.0446L53.8555 26.2067C54.1894 26.5407 53.901 27.1069 53.4345 27.033L43.4304 25.4485C43.2218 25.4155 43.0156 25.5205 42.9197 25.7087L38.3213 34.7335C38.1069 35.1544 37.4793 35.0549 37.4054 34.5885L35.8209 24.5844C35.7879 24.3758 35.6243 24.2121 35.4157 24.1791L25.4116 22.5946C24.9451 22.5207 24.8457 21.8931 25.2665 21.6787L34.2913 17.0803C34.4795 16.9844 34.5845 16.7782 34.5515 16.5696L32.967 6.56552C32.8931 6.09904 33.4593 5.81054 33.7933 6.1445L40.9554 13.3066C41.1048 13.456 41.3333 13.4922 41.5215 13.3963L50.5463 8.79792Z" fill="#FFE07C"/>
</g>
</svg>
