<svg width="80" height="80" viewBox="0 0 80 80" fill="none" xmlns="http://www.w3.org/2000/svg">
<path d="M7.11133 36.2222C8.99731 36.2222 10.8061 35.473 12.1396 34.1394C13.4732 32.8058 14.2224 30.9971 14.2224 29.1111C14.2224 27.2251 13.4732 25.4164 12.1396 24.0828C10.8061 22.7492 8.99731 22 7.11133 22L7.11133 36.2222Z" fill="#FFE07C"/>
<path d="M7.11133 36.2222C5.22534 36.2222 3.41661 35.473 2.08301 34.1394C0.749421 32.8058 0.000217163 30.9971 0.000216939 29.1111C0.000216714 27.2251 0.74942 25.4164 2.08301 24.0828C3.4166 22.7492 5.22534 22 7.11133 22L7.11133 36.2222Z" fill="#FFCC25"/>
<path d="M7.11133 34.2638C7.78803 34.2638 8.4581 34.1306 9.08329 33.8716C9.70848 33.6126 10.2765 33.2331 10.755 32.7546C11.2335 32.2761 11.6131 31.708 11.8721 31.0828C12.131 30.4576 12.2643 29.7876 12.2643 29.1109C12.2643 28.4342 12.131 27.7641 11.8721 27.1389C11.6131 26.5137 11.2335 25.9457 10.755 25.4672C10.2765 24.9887 9.70848 24.6091 9.08329 24.3501C8.4581 24.0912 7.78803 23.9579 7.11133 23.9579L7.11133 34.2638Z" fill="#FFD447"/>
<path d="M7.11133 23.9583C6.43463 23.9583 5.76456 24.0916 5.13937 24.3506C4.51418 24.6095 3.94612 24.9891 3.46762 25.4676C2.98912 25.9461 2.60956 26.5142 2.3506 27.1393C2.09163 27.7645 1.95835 28.4346 1.95835 29.1113C1.95835 29.788 2.09163 30.4581 2.3506 31.0833C2.60956 31.7085 2.98912 32.2765 3.46762 32.755C3.94612 33.2335 4.51418 33.6131 5.13937 33.872C5.76456 34.131 6.43463 34.2643 7.11133 34.2643L7.11133 23.9583Z" fill="#FFE07C"/>
<path fill-rule="evenodd" clip-rule="evenodd" d="M7.11328 25.5591C7.01637 25.5356 6.90405 25.5811 6.86687 25.6955L6.19521 27.7627C6.16762 27.8476 6.08848 27.9051 5.99918 27.9051H3.82566C3.62598 27.9051 3.54296 28.1606 3.7045 28.278L5.46292 29.5555C5.53516 29.608 5.56539 29.7011 5.5378 29.786L4.86614 31.8531C4.80444 32.043 5.02179 32.2009 5.18333 32.0836L6.94174 30.806C6.99225 30.7693 7.05525 30.7583 7.11328 30.7729V25.5591Z" fill="#5477D8"/>
<path fill-rule="evenodd" clip-rule="evenodd" d="M7.10938 25.5592C7.20628 25.5357 7.31861 25.5812 7.35579 25.6956L8.02745 27.7628C8.05504 27.8477 8.13418 27.9052 8.22348 27.9052H10.397C10.5967 27.9052 10.6797 28.1607 10.5182 28.2781L8.75974 29.5557C8.68749 29.6081 8.65727 29.7012 8.68486 29.7861L9.35652 31.8532C9.41822 32.0431 9.20087 32.2011 9.03933 32.0837L7.28091 30.8061C7.23041 30.7694 7.1674 30.7584 7.10938 30.773V25.5592Z" fill="#84A5FF"/>
<path d="M75.1113 13.1108C76.4079 13.1108 77.6515 12.5957 78.5683 11.6789C79.4851 10.762 80.0002 9.51851 80.0002 8.2219C80.0002 6.92528 79.4851 5.68178 78.5683 4.76493C77.6515 3.84809 76.4079 3.33301 75.1113 3.33301L75.1113 13.1108Z" fill="#FFE07C"/>
<path d="M75.1113 13.1108C73.8147 13.1108 72.5712 12.5957 71.6544 11.6789C70.7375 10.762 70.2224 9.51851 70.2224 8.2219C70.2224 6.92528 70.7375 5.68178 71.6544 4.76493C72.5712 3.84809 73.8147 3.33301 75.1113 3.33301L75.1113 13.1108Z" fill="#FFCC25"/>
<path d="M75.1113 11.7643C75.5766 11.7643 76.0372 11.6727 76.4671 11.4946C76.8969 11.3166 77.2874 11.0556 77.6164 10.7267C77.9453 10.3977 78.2063 10.0072 78.3843 9.57735C78.5624 9.14753 78.654 8.68686 78.654 8.22163C78.654 7.7564 78.5624 7.29572 78.3843 6.86591C78.2063 6.43609 77.9453 6.04555 77.6164 5.71658C77.2874 5.38761 76.8969 5.12666 76.4671 4.94862C76.0372 4.77059 75.5766 4.67896 75.1113 4.67896L75.1113 11.7643Z" fill="#FFD447"/>
<path d="M75.1113 4.67955C74.6461 4.67955 74.1854 4.77118 73.7556 4.94922C73.3258 5.12725 72.9352 5.3882 72.6063 5.71717C72.2773 6.04614 72.0164 6.43668 71.8383 6.8665C71.6603 7.29631 71.5687 7.75699 71.5687 8.22222C71.5687 8.68745 71.6603 9.14812 71.8383 9.57794C72.0164 10.0078 72.2773 10.3983 72.6063 10.7273C72.9352 11.0562 73.3258 11.3172 73.7556 11.4952C74.1854 11.6733 74.6461 11.7649 75.1113 11.7649L75.1113 4.67955Z" fill="#FFE07C"/>
<path fill-rule="evenodd" clip-rule="evenodd" d="M75.1138 5.78016C75.047 5.76366 74.9694 5.79488 74.9437 5.8738L74.482 7.29496C74.463 7.35334 74.4086 7.39287 74.3472 7.39287H72.8529C72.7156 7.39287 72.6586 7.56854 72.7696 7.64922L73.9785 8.52755C74.0282 8.56364 74.049 8.6276 74.03 8.68598L73.5682 10.1071C73.5258 10.2377 73.6753 10.3463 73.7863 10.2656L74.9952 9.38725C75.0301 9.36189 75.0737 9.35436 75.1138 9.36464V5.78016Z" fill="#5477D8"/>
<path fill-rule="evenodd" clip-rule="evenodd" d="M75.1089 5.78016C75.1756 5.76366 75.2533 5.79488 75.2789 5.8738L75.7407 7.29496C75.7596 7.35334 75.8141 7.39287 75.8754 7.39287H77.3697C77.507 7.39287 77.5641 7.56854 77.453 7.64922L76.2441 8.52755C76.1945 8.56364 76.1737 8.6276 76.1926 8.68598L76.6544 10.1071C76.6968 10.2377 76.5474 10.3463 76.4363 10.2656L75.2274 9.38725C75.1925 9.36189 75.1489 9.35436 75.1089 9.36464V5.78016Z" fill="#84A5FF"/>
<path d="M68.4453 30.8889C69.3883 30.8889 70.2927 30.5143 70.9595 29.8475C71.6263 29.1807 72.0009 28.2764 72.0009 27.3334C72.0009 26.3904 71.6263 25.486 70.9595 24.8192C70.2927 24.1524 69.3883 23.7778 68.4453 23.7778L68.4453 30.8889Z" fill="#FFE07C"/>
<path d="M68.4453 30.8889C67.5023 30.8889 66.598 30.5143 65.9312 29.8475C65.2644 29.1807 64.8898 28.2764 64.8898 27.3334C64.8898 26.3904 65.2644 25.486 65.9312 24.8192C66.598 24.1524 67.5023 23.7778 68.4453 23.7778L68.4453 30.8889Z" fill="#FFCC25"/>
<path d="M68.4453 29.9093C68.7837 29.9093 69.1187 29.8427 69.4313 29.7132C69.7439 29.5837 70.0279 29.3939 70.2672 29.1547C70.5064 28.9154 70.6962 28.6314 70.8257 28.3188C70.9552 28.0062 71.0218 27.6712 71.0218 27.3328C71.0218 26.9945 70.9552 26.6595 70.8257 26.3469C70.6962 26.0343 70.5064 25.7502 70.2672 25.511C70.0279 25.2717 69.7439 25.082 69.4313 24.9525C69.1187 24.823 68.7837 24.7563 68.4453 24.7563L68.4453 29.9093Z" fill="#FFD447"/>
<path d="M68.4453 24.7572C68.107 24.7572 67.7719 24.8238 67.4593 24.9533C67.1467 25.0828 66.8627 25.2726 66.6235 25.5118C66.3842 25.7511 66.1944 26.0351 66.0649 26.3477C65.9355 26.6603 65.8688 26.9953 65.8688 27.3337C65.8688 27.672 65.9355 28.0071 66.0649 28.3196C66.1944 28.6322 66.3842 28.9163 66.6235 29.1555C66.8627 29.3948 67.1467 29.5846 67.4593 29.714C67.7719 29.8435 68.107 29.9102 68.4453 29.9102L68.4453 24.7572Z" fill="#FFE07C"/>
<path fill-rule="evenodd" clip-rule="evenodd" d="M68.4482 25.5575C68.3993 25.5448 68.3419 25.5673 68.3231 25.6253L67.9873 26.6589C67.9735 26.7013 67.9339 26.7301 67.8892 26.7301H66.8025C66.7026 26.7301 66.6611 26.8578 66.7419 26.9165L67.6211 27.5553C67.6572 27.5815 67.6723 27.6281 67.6585 27.6705L67.3227 28.7041C67.2919 28.799 67.4005 28.878 67.4813 28.8193L68.3605 28.1805C68.3863 28.1618 68.4186 28.1564 68.4482 28.1645V25.5575Z" fill="#5477D8"/>
<path fill-rule="evenodd" clip-rule="evenodd" d="M68.4483 25.5577C68.4972 25.5449 68.5546 25.5675 68.5734 25.6254L68.9092 26.659C68.923 26.7014 68.9626 26.7302 69.0072 26.7302H70.094C70.1938 26.7302 70.2354 26.858 70.1546 26.9166L69.2754 27.5554C69.2393 27.5817 69.2241 27.6282 69.2379 27.6706L69.5738 28.7042C69.6046 28.7992 69.4959 28.8781 69.4152 28.8194L68.536 28.1807C68.5102 28.1619 68.4778 28.1566 68.4483 28.1646V25.5577Z" fill="#84A5FF"/>
<path fill-rule="evenodd" clip-rule="evenodd" d="M57.7782 29.1108H25.3338C25.3338 29.1108 17.9782 38.0654 15.2036 48.3786C14.6797 50.048 14.3559 51.7898 14.2559 53.5831C14.2437 53.722 14.2326 53.8608 14.2227 53.9997H14.2367C14.2274 54.258 14.2227 54.5173 14.2227 54.7775C14.2227 68.0937 26.5597 78.8886 41.7782 78.8886C56.9967 78.8886 69.3338 68.0937 69.3338 54.7775C69.3338 54.5173 69.3291 54.258 69.3197 53.9997H69.3338C69.3338 43.1108 57.7782 29.1108 57.7782 29.1108Z" fill="#5477D8"/>
<path fill-rule="evenodd" clip-rule="evenodd" d="M55.7128 29.1108H27.4548C27.4548 29.1108 21.0483 37.4258 18.6317 47.0024C18.1754 48.5525 17.8934 50.1699 17.8063 51.8351C17.7956 51.964 17.786 52.093 17.7773 52.2219H17.7896C17.7814 52.4617 17.7773 52.7025 17.7773 52.9442C17.7773 65.3092 28.5225 75.333 41.7773 75.333C55.0322 75.333 65.7773 65.3092 65.7773 52.9442C65.7773 52.7025 65.7732 52.4617 65.7651 52.2219H65.7773C65.7773 42.1108 55.7128 29.1108 55.7128 29.1108Z" fill="#84A5FF"/>
<path d="M20.5353 10.5931C19.402 7.55091 22.6034 4.70593 25.4914 6.18893L33.7784 10.4444L39.8426 4.04342C40.8944 2.93318 42.6625 2.93318 43.7143 4.04342L49.7784 10.4444L58.0655 6.18893C60.9534 4.70593 64.1549 7.5509 63.0215 10.5931L57.7784 24.6667H25.7784L20.5353 10.5931Z" fill="#5477D8"/>
<path d="M23.6749 13.6811C22.5306 10.6446 25.718 7.78796 28.6115 9.2568L34.7968 12.3967L39.8533 7.12035C40.9031 6.0249 42.6541 6.0249 43.704 7.12035L48.7605 12.3967L54.9458 9.2568C57.8393 7.78796 61.0267 10.6446 59.8824 13.6811L55.7423 24.6669H27.815L23.6749 13.6811Z" fill="#84A5FF"/>
<path fill-rule="evenodd" clip-rule="evenodd" d="M41.5056 42.4667C41.2369 42.3894 40.916 42.5111 40.8118 42.8316L38.6107 49.6061C38.5356 49.8371 38.3203 49.9935 38.0774 49.9935H30.9543C30.4112 49.9935 30.1854 50.6885 30.6248 51.0078L36.3875 55.1946C36.584 55.3374 36.6662 55.5905 36.5911 55.8215L34.39 62.5959C34.2221 63.1125 34.8134 63.5421 35.2528 63.2228L41.0155 59.036C41.1597 58.9312 41.3414 58.9033 41.5056 58.9523V42.4667Z" fill="#FFCC25"/>
<path fill-rule="evenodd" clip-rule="evenodd" d="M41.5081 42.4667C41.7768 42.3894 42.0977 42.5111 42.2019 42.8316L44.403 49.6061C44.4781 49.8371 44.6934 49.9935 44.9363 49.9935H52.0593C52.6025 49.9935 52.8283 50.6885 52.3889 51.0078L46.6262 55.1946C46.4297 55.3374 46.3475 55.5905 46.4225 55.8215L48.6237 62.5959C48.7915 63.1125 48.2003 63.5421 47.7609 63.2228L41.9982 59.036C41.854 58.9312 41.6723 58.9033 41.5081 58.9523V42.4667Z" fill="#FFE07C"/>
</svg>
