<svg width="80" height="80" viewBox="0 0 80 80" fill="none" xmlns="http://www.w3.org/2000/svg">
<path d="M4.27523 48.0492C3.17398 46.9479 3.17399 45.1624 4.27523 44.0612L17.3625 30.9739C18.4638 29.8726 20.2493 29.8726 21.3505 30.9739L23.3445 32.9679L6.26921 50.0431L4.27523 48.0492Z" fill="#84A5FF"/>
<path d="M59.092 30.8592C60.1932 29.758 61.9787 29.758 63.0799 30.8592L76.1672 43.9465C77.2685 45.0478 77.2685 46.8333 76.1672 47.9345L74.1733 49.9285L57.098 32.8532L59.092 30.8592Z" fill="#5477D8"/>
<path fill-rule="evenodd" clip-rule="evenodd" d="M27.6937 47.0085C26.7219 47.9803 26.7219 49.5558 27.6937 50.5276L28.2121 51.046C32.8766 55.7105 40.4392 55.7105 45.1037 51.046L47.0659 49.0838L61.0019 63.0199L71.0419 52.98L57.1058 39.0439L57.1132 39.0365L51.7514 33.6746C48.7901 30.7133 43.9889 30.7133 41.0276 33.6746L27.6937 47.0085Z" fill="#5477D8"/>
<path d="M24.7459 45.2883L35.6947 34.3395C33.9526 33.593 28.4787 33.8418 24.995 37.3255L9.31836 53.0022L32.2113 75.8951C38.9298 82.6137 44.9019 79.6276 47.1414 77.1393C52.6158 76.3928 53.3623 74.4021 54.1088 70.9184C57.6921 71.1175 58.9197 68.513 59.0856 67.1858C57.5926 65.7758 53.0637 61.4128 46.8926 55.2417C38.4322 61.2138 31.2157 58.2277 26.9854 55.7394C22.7552 53.251 22.5064 47.5278 24.7459 45.2883Z" fill="#84A5FF"/>
<path fill-rule="evenodd" clip-rule="evenodd" d="M42.0122 0.0185293C41.7288 -0.0522908 41.3986 0.0798983 41.2897 0.415096L39.3322 6.43978C39.2517 6.68729 39.0211 6.85487 38.7608 6.85487H32.4261C31.8442 6.85487 31.6022 7.59955 32.073 7.94161L37.1979 11.6651C37.4084 11.818 37.4966 12.0892 37.4161 12.3367L35.4586 18.3614C35.2788 18.9148 35.9122 19.3751 36.383 19.033L41.5079 15.3096C41.6564 15.2017 41.8419 15.1699 42.0122 15.2141V0.0185293Z" fill="#FFCC25"/>
<path fill-rule="evenodd" clip-rule="evenodd" d="M25.7293 14.4398C25.4599 14.3986 25.165 14.5346 25.0633 14.8477L24.0749 17.8897C23.9944 18.1372 23.7638 18.3048 23.5035 18.3048H20.305C19.7231 18.3048 19.4811 19.0495 19.9519 19.3915L22.5396 21.2716C22.7501 21.4246 22.8382 21.6957 22.7578 21.9432L21.7694 24.9852C21.5896 25.5387 22.223 25.9989 22.6938 25.6568L25.2815 23.7768C25.4137 23.6808 25.5752 23.645 25.7293 23.6696V14.4398Z" fill="#FFCC25"/>
<path fill-rule="evenodd" clip-rule="evenodd" d="M58.075 14.4393C57.8056 14.3981 57.5107 14.5341 57.409 14.8472L56.4206 17.8892C56.3402 18.1367 56.1095 18.3043 55.8492 18.3043H52.6507C52.0688 18.3043 51.8268 19.049 52.2976 19.391L54.8853 21.2711C55.0958 21.4241 55.1839 21.6952 55.1035 21.9427L54.1151 24.9847C53.9353 25.5382 54.5687 25.9984 55.0395 25.6564L57.6272 23.7763C57.7594 23.6803 57.9209 23.6445 58.075 23.6691V14.4393Z" fill="#FFCC25"/>
<path fill-rule="evenodd" clip-rule="evenodd" d="M42.0093 0.0185293C42.2927 -0.0522908 42.6229 0.0798983 42.7318 0.415096L44.6893 6.43978C44.7697 6.68729 45.0004 6.85487 45.2607 6.85487H51.5954C52.1773 6.85487 52.4193 7.59955 51.9485 7.94161L46.8236 11.6651C46.613 11.818 46.5249 12.0892 46.6054 12.3367L48.5629 18.3614C48.7427 18.9148 48.1093 19.3751 47.6385 19.033L42.5136 15.3096C42.3651 15.2017 42.1796 15.1699 42.0093 15.2141V0.0185293Z" fill="#FFE07C"/>
<path fill-rule="evenodd" clip-rule="evenodd" d="M25.7277 14.4388C25.9972 14.3976 26.292 14.5336 26.3938 14.8467L27.3822 17.8887C27.4626 18.1362 27.6932 18.3038 27.9535 18.3038H31.152C31.734 18.3038 31.9759 19.0485 31.5051 19.3906L28.9175 21.2706C28.7069 21.4236 28.6188 21.6947 28.6992 21.9422L29.6876 24.9842C29.8675 25.5377 29.234 25.9979 28.7632 25.6559L26.1755 23.7758C26.0434 23.6798 25.8818 23.644 25.7277 23.6686V14.4388Z" fill="#FFE07C"/>
<path fill-rule="evenodd" clip-rule="evenodd" d="M58.0754 14.4398C58.3448 14.3986 58.6397 14.5346 58.7414 14.8477L59.7298 17.8897C59.8102 18.1372 60.0409 18.3048 60.3011 18.3048H63.4997C64.0816 18.3048 64.3236 19.0495 63.8528 19.3915L61.2651 21.2716C61.0546 21.4246 60.9665 21.6957 61.0469 21.9432L62.0353 24.9852C62.2151 25.5387 61.5817 25.9989 61.1109 25.6568L58.5232 23.7768C58.391 23.6808 58.2294 23.645 58.0754 23.6696V14.4398Z" fill="#FFE07C"/>
</svg>
