<svg width="88" height="88" viewBox="0 0 88 88" fill="none" xmlns="http://www.w3.org/2000/svg">
<rect x="8.63672" y="62.0415" width="25.9583" height="25.9583" rx="1" fill="#84A5FF"/>
<path d="M8.63672 63.0415C8.63672 62.4892 9.08443 62.0415 9.63672 62.0415H32.1808C33.0717 62.0415 33.5179 63.1186 32.8879 63.7486L21.6159 75.0207L10.3438 86.2927C9.71386 86.9227 8.63672 86.4765 8.63672 85.5856V63.0415Z" fill="#5477D8"/>
<rect x="34.5938" y="36.0833" width="25.9583" height="25.9583" rx="1" fill="#84A5FF"/>
<path d="M34.5938 37.0833C34.5938 36.531 35.0415 36.0833 35.5937 36.0833H58.1379C59.0288 36.0833 59.4749 37.1604 58.845 37.7904L47.5729 49.0624L36.3009 60.3345C35.6709 60.9644 34.5938 60.5183 34.5938 59.6274V37.0833Z" fill="#5477D8"/>
<rect x="39.2305" y="65.75" width="27.8125" height="22.25" rx="1" fill="#5477D8"/>
<rect x="64.2617" y="65.75" width="22.25" height="22.25" rx="1" fill="#5477D8"/>
<rect x="64.2617" y="39.7915" width="22.25" height="30.5938" rx="1" fill="#5477D8"/>
<rect x="60.5508" y="10.125" width="25.9583" height="25.9583" rx="1" fill="#FFCC25"/>
<path d="M86.5117 35.0835C86.5117 35.6358 86.064 36.0835 85.5117 36.0835L62.9676 36.0835C62.0767 36.0835 61.6305 35.0064 62.2605 34.3764L73.5326 23.1043L84.8046 11.8323C85.4346 11.2023 86.5117 11.6485 86.5117 12.5394L86.5117 35.0835Z" fill="#FFE07C"/>
<path d="M7.70703 56.4792H27.5664C28.1187 56.4792 28.5664 56.0315 28.5664 55.4792V31.5208C28.5664 30.9686 29.0141 30.5208 29.5664 30.5208H53.5247C54.077 30.5208 54.5247 30.0731 54.5247 29.5208V5.5625C54.5247 5.01022 54.9725 4.5625 55.5247 4.5625H70.2852" stroke="#00EFD8" stroke-width="3" stroke-linecap="round"/>
<path d="M7.70833 56.4792H5C4.44771 56.4792 4 56.927 4 57.4792V67.6042" stroke="#00EFD8" stroke-width="3" stroke-linecap="round"/>
<path d="M76.5121 3.68C77.2183 4.05639 77.2183 5.06861 76.5121 5.445L70.5992 8.59618C69.9331 8.95117 69.1289 8.46847 69.1289 7.71368L69.1289 1.41132C69.1289 0.656537 69.9331 0.173834 70.5992 0.528822L76.5121 3.68Z" fill="#00EFD8"/>
</svg>
