<svg width="60" height="60" viewBox="0 0 60 60" fill="none" xmlns="http://www.w3.org/2000/svg">
<rect width="60" height="60" fill="white"/>
<path fill-rule="evenodd" clip-rule="evenodd" d="M10.8388 30.4261C9.89851 30.2081 9 30.9221 9 31.8874V40.4997L11.4795 41.2967C11.7897 41.3964 12 41.685 12 42.0108V46.2209C12 46.7294 11.5046 47.0905 11.0205 46.9349L9 46.2855V53.0423C9 53.7859 9.54484 54.4173 10.2805 54.5261L25.2805 56.7453C26.1864 56.8794 27 56.1773 27 55.2615V35.3656C27 34.6677 26.5187 34.0621 25.8388 33.9044L10.8388 30.4261Z" fill="#84A5FF"/>
<mask id="mask0_682_9546" style="mask-type:alpha" maskUnits="userSpaceOnUse" x="9" y="30" width="18" height="27">
<path fill-rule="evenodd" clip-rule="evenodd" d="M10.8388 30.4261C9.89851 30.2081 9 30.9221 9 31.8874V40.4997L11.4795 41.2967C11.7897 41.3964 12 41.685 12 42.0108V46.2209C12 46.7294 11.5046 47.0905 11.0205 46.9349L9 46.2855V53.0423C9 53.7859 9.54484 54.4173 10.2805 54.5261L25.2805 56.7453C26.1864 56.8794 27 56.1773 27 55.2615V35.3656C27 34.6677 26.5187 34.0621 25.8388 33.9044L10.8388 30.4261Z" fill="#84A5FF"/>
</mask>
<g mask="url(#mask0_682_9546)">
<path d="M10.5 55.875C10.2 55.875 9.375 54.625 9 54C9 54 16.8085 51.5058 20.25 47.625C23.6915 43.7442 26.625 34.125 26.625 34.125H27L27.375 57.75C21.875 57.125 10.8 55.875 10.5 55.875Z" fill="#5477D8"/>
</g>
<path d="M9 41.25L10.7372 41.8291C11.0434 41.9311 11.25 42.2177 11.25 42.5406V45.4594C11.25 45.9713 10.7485 46.3328 10.2628 46.1709L9 45.75V41.25Z" fill="#FFCC25"/>
<path fill-rule="evenodd" clip-rule="evenodd" d="M49.1612 30.4261C50.1015 30.2081 51 30.9221 51 31.8874V40.4997L48.5205 41.2967C48.2103 41.3964 48 41.685 48 42.0108V46.2209C48 46.7294 48.4954 47.0905 48.9795 46.9349L51 46.2855V53.0423C51 53.7859 50.4552 54.4173 49.7195 54.5261L34.7195 56.7453C33.8136 56.8794 33 56.1773 33 55.2615V35.3656C33 34.6677 33.4813 34.0621 34.1612 33.9044L49.1612 30.4261Z" fill="#84A5FF"/>
<mask id="mask1_682_9546" style="mask-type:alpha" maskUnits="userSpaceOnUse" x="33" y="30" width="18" height="27">
<path fill-rule="evenodd" clip-rule="evenodd" d="M49.1612 30.4261C50.1015 30.2081 51 30.9221 51 31.8874V40.4997L48.5205 41.2967C48.2103 41.3964 48 41.685 48 42.0108V46.2209C48 46.7294 48.4954 47.0905 48.9795 46.9349L51 46.2855V53.0423C51 53.7859 50.4552 54.4173 49.7195 54.5261L34.7195 56.7453C33.8136 56.8794 33 56.1773 33 55.2615V35.3656C33 34.6677 33.4813 34.0621 34.1612 33.9044L49.1612 30.4261Z" fill="#84A5FF"/>
</mask>
<g mask="url(#mask1_682_9546)">
<path d="M49.5 55.875C49.8 55.875 50.625 54.625 51 54C51 54 42.0665 52.2558 38.625 48.375C35.1835 44.4942 33.375 34.125 33.375 34.125H33L32.625 57.75C38.125 57.125 49.2 55.875 49.5 55.875Z" fill="#5477D8"/>
</g>
<path d="M51 41.25L49.2628 41.8291C48.9566 41.9311 48.75 42.2177 48.75 42.5406V45.4594C48.75 45.9713 49.2515 46.3328 49.7372 46.1709L51 45.75V41.25Z" fill="#FFCC25"/>
<circle cx="30" cy="10.5" r="8.25" fill="#5477D8"/>
<mask id="mask2_682_9546" style="mask-type:alpha" maskUnits="userSpaceOnUse" x="21" y="2" width="18" height="17">
<circle cx="30" cy="10.5" r="8.25" fill="#5477D8"/>
</mask>
<g mask="url(#mask2_682_9546)">
<path d="M28.876 4.125C26.5226 3.65432 24.751 4.5 23.251 7.125C22.6011 8.26228 22.351 10.125 21.751 10.125C21.151 10.125 21.7502 6.75 22.1252 5.625C22.6252 5.125 23.6252 4.05 23.6252 3.75C23.6252 3.45 25.6252 2.375 26.6252 1.875L30.3752 1.5L35.6252 3.375L39.0002 8.25C38.8752 8.75 38.9018 9.9623 38.251 10.125C36.751 10.5 37.5002 7.875 36.1209 6C34.7416 4.125 30.3727 8.62362 30.3752 6.375C30.376 5.625 30.751 4.5 28.876 4.125Z" fill="#84A5FF"/>
</g>
<path d="M17.9999 17.4925C22.5589 14.0175 23.9618 20.7839 29.9999 20.7839C36.0381 20.7839 37.441 14.0175 42 17.4925C44.4088 19.1044 44.8834 26.1919 44.9769 28.9223C44.9991 29.5681 44.5906 30.1352 43.9728 30.3245C41.4394 31.1005 34.7534 33 29.9999 33C25.2465 33 18.5604 31.1005 16.0271 30.3244C15.4093 30.1352 15.0008 29.5681 15.0229 28.9224C15.1163 26.192 15.5906 19.1044 17.9999 17.4925Z" fill="#5477D8"/>
<circle cx="30.375" cy="25.875" r="1.125" fill="#FFCC25"/>
<circle cx="30.375" cy="29.625" r="1.125" fill="#FFCC25"/>
<rect x="28.5" y="34.5" width="3" height="22.5" rx="0.75" fill="#5477D8"/>
</svg>
