<svg width="60" height="60" viewBox="0 0 60 60" fill="none" xmlns="http://www.w3.org/2000/svg">
<rect width="60" height="60" fill="white"/>
<path d="M5.93359 32.8069C5.93359 31.0787 7.33458 29.6777 9.06279 29.6777V29.6777C10.791 29.6777 12.192 31.0787 12.192 32.8069V36.8302H5.93359V32.8069Z" fill="#84A5FF"/>
<path d="M47.0586 32.8069C47.0586 31.0787 48.4596 29.6777 50.1878 29.6777V29.6777C51.916 29.6777 53.317 31.0787 53.317 32.8069V36.8302H47.0586V32.8069Z" fill="#84A5FF"/>
<path d="M4.14453 36.8301C4.14453 35.8426 4.9451 35.042 5.93264 35.042H12.191V49.8134V52.9231H9.50887C6.54623 52.9231 4.14453 50.5214 4.14453 47.5588V36.8301Z" fill="#5477D8"/>
<path d="M55.1055 36.8301C55.1055 35.8426 54.3049 35.042 53.3174 35.042H47.059V49.8134V52.9231H49.7411C52.7038 52.9231 55.1055 50.5214 55.1055 47.5588V36.8301Z" fill="#5477D8"/>
<path fill-rule="evenodd" clip-rule="evenodd" d="M46.1641 22.5254H13.084V35.9362C13.084 37.9113 14.6851 39.5125 16.6602 39.5125H42.5878C44.5629 39.5125 46.1641 37.9113 46.1641 35.9362V22.5254ZM46.1641 37.7246V52.0295C46.1641 54.0046 44.5629 55.6057 42.5878 55.6057H16.6602C14.6851 55.6057 13.084 54.0046 13.084 52.0295V37.7246C13.084 39.6997 14.6851 41.3008 16.6602 41.3008H42.5878C44.5629 41.3008 46.1641 39.6997 46.1641 37.7246Z" fill="#84A5FF"/>
<path d="M14.873 22.5254H44.3769V22.5254C44.3769 23.5129 43.5763 24.3135 42.5888 24.3135H16.6612C15.6736 24.3135 14.873 23.5129 14.873 22.5254V22.5254Z" fill="#5477D8"/>
<path d="M13.0859 35.042H46.166V35.936C46.166 37.9111 44.5649 39.5123 42.5898 39.5123H16.6622C14.6871 39.5123 13.0859 37.9111 13.0859 35.936V35.042Z" fill="#5477D8"/>
<rect x="19.3438" y="36.8301" width="3.57622" height="7.15245" rx="0.894056" fill="#FFCC25"/>
<rect x="36.332" y="36.8301" width="3.57622" height="7.15245" rx="0.894056" fill="#FFCC25"/>
<rect x="5.93359" y="9.11426" width="47.385" height="13.4108" rx="6.70542" fill="#5477D8"/>
<rect x="15.7676" y="9.11426" width="3.57622" height="13.4108" fill="#FFE07C"/>
<rect x="39.9062" y="9.11426" width="3.57622" height="13.4108" fill="#FFE07C"/>
<path d="M26.4942 4.64406H32.7526C34.2339 4.64406 35.4348 5.8449 35.4348 7.32622V10.0084H23.812V7.32622C23.812 5.8449 25.0129 4.64406 26.4942 4.64406Z" stroke="#5477D8" stroke-width="1.78811"/>
</svg>
