<svg width="60" height="60" viewBox="0 0 60 60" fill="none" xmlns="http://www.w3.org/2000/svg">
<rect width="60" height="60" fill="white"/>
<path fill-rule="evenodd" clip-rule="evenodd" d="M25.8003 36.1504H3.75V51.9004C3.75 53.0602 4.6902 54.0004 5.85 54.0004H54.15C55.3098 54.0004 56.25 53.0602 56.25 51.9004V36.1504H35.2503V37.2004C35.2503 38.3602 34.3101 39.3004 33.1503 39.3004H27.9003C26.7405 39.3004 25.8003 38.3602 25.8003 37.2004V36.1504Z" fill="#5477D8"/>
<path fill-rule="evenodd" clip-rule="evenodd" d="M5.85 12C4.6902 12 3.75 12.9402 3.75 14.1V31.95C3.75 33.1098 4.6902 34.05 5.85 34.05H25.8003V33.0001C25.8003 31.8403 26.7405 30.9001 27.9003 30.9001H33.1503C34.3101 30.9001 35.2503 31.8403 35.2503 33.0001V34.05H54.15C55.3098 34.05 56.25 33.1098 56.25 31.95V14.1C56.25 12.9402 55.3098 12 54.15 12H5.85Z" fill="#5477D8"/>
<rect x="26.8516" y="31.9492" width="7.35" height="6.3" rx="1.05" fill="#FFCC25"/>
<path d="M22.6508 7.8H37.3508C37.9307 7.8 38.4008 8.2701 38.4008 8.85V13.05H21.6008V8.85C21.6008 8.2701 22.0709 7.8 22.6508 7.8Z" stroke="#84A5FF" stroke-width="2.1"/>
<rect x="12.1484" y="26.6992" width="2.1" height="3.15" rx="1.05" fill="#FFCC25"/>
<path fill-rule="evenodd" clip-rule="evenodd" d="M5.84766 12H54.1477V26.7C54.1477 27.8598 53.2075 28.8 52.0477 28.8H48.8982V26.7001C48.8982 26.1202 48.4281 25.6501 47.8482 25.6501H45.7482C45.1683 25.6501 44.6982 26.1202 44.6982 26.7001V28.8H15.2981V26.7001C15.2981 26.1202 14.828 25.6501 14.2481 25.6501H12.1481C11.5682 25.6501 11.0981 26.1202 11.0981 26.7001V28.8H7.94765C6.78786 28.8 5.84766 27.8598 5.84766 26.7V12Z" fill="#84A5FF"/>
<rect x="45.75" y="26.6992" width="2.1" height="3.15" rx="1.05" fill="#FFCC25"/>
</svg>
