<svg width="48" height="48" viewBox="0 0 48 48" fill="none" xmlns="http://www.w3.org/2000/svg">
<g clip-path="url(#clip0_721_10135)">
<line x1="18.5356" y1="1.84319" x2="18.5356" y2="14.5912" stroke="#00EFD8" stroke-width="1.82114" stroke-linecap="round"/>
<line x1="22.4828" y1="1.84319" x2="22.4828" y2="14.5912" stroke="#00EFD8" stroke-width="1.82114" stroke-linecap="round"/>
<line x1="26.1235" y1="1.84319" x2="26.1235" y2="14.5912" stroke="#00EFD8" stroke-width="1.82114" stroke-linecap="round"/>
<line x1="29.768" y1="1.84319" x2="29.768" y2="14.5912" stroke="#00EFD8" stroke-width="1.82114" stroke-linecap="round"/>
<path d="M13.3077 17.8106C17.3306 21.6358 25.0889 20.9101 25.0889 20.9101C25.0889 20.9101 26.3249 13.9825 22.302 10.1573C18.2792 6.33212 10.5208 7.05784 10.5208 7.05784C10.5208 7.05784 9.28487 13.9854 13.3077 17.8106Z" fill="#84A5FF"/>
<path d="M34.6929 17.8106C30.6701 21.6358 22.9118 20.9101 22.9118 20.9101C22.9118 20.9101 21.6758 13.9825 25.6987 10.1573C29.7215 6.33213 37.4798 7.05785 37.4798 7.05785C37.4798 7.05785 38.7158 13.9854 34.6929 17.8106Z" fill="#84A5FF"/>
<path d="M14.7532 16.7809C17.6262 19.5893 23.1669 19.0565 23.1669 19.0565C23.1669 19.0565 24.0496 13.9704 21.1766 11.1621C18.3036 8.35376 12.7629 8.88657 12.7629 8.88657C12.7629 8.88657 11.8802 13.9726 14.7532 16.7809Z" fill="#5477D8"/>
<path d="M33.3737 16.7809C30.5008 19.5893 24.9601 19.0565 24.9601 19.0565C24.9601 19.0565 24.0774 13.9704 26.9504 11.1621C29.8233 8.35376 35.364 8.88657 35.364 8.88657C35.364 8.88657 36.2467 13.9726 33.3737 16.7809Z" fill="#5477D8"/>
<path d="M13.0842 30.7938C17.2138 34.6406 25.178 33.9108 25.178 33.9108C25.178 33.9108 26.4468 26.944 22.3172 23.0971C18.1876 19.2503 10.2234 19.9801 10.2234 19.9801C10.2234 19.9801 8.95458 26.9469 13.0842 30.7938Z" fill="#84A5FF"/>
<path d="M13.0842 43.8709C17.2138 47.7177 25.178 46.9879 25.178 46.9879C25.178 46.9879 26.4468 40.0211 22.3172 36.1743C18.1876 32.3275 10.2234 33.0573 10.2234 33.0573C10.2234 33.0573 8.95458 40.0241 13.0842 43.8709Z" fill="#84A5FF"/>
<path d="M35.0369 30.7938C30.9073 34.6406 22.943 33.9108 22.943 33.9108C22.943 33.9108 21.6743 26.944 25.8039 23.0971C29.9335 19.2503 37.8977 19.9801 37.8977 19.9801C37.8977 19.9801 39.1665 26.9469 35.0369 30.7938Z" fill="#84A5FF"/>
<path d="M35.0369 43.8709C30.9073 47.7177 22.943 46.9879 22.943 46.9879C22.943 46.9879 21.6743 40.0211 25.8039 36.1743C29.9335 32.3275 37.8977 33.0573 37.8977 33.0573C37.8977 33.0573 39.1665 40.0241 35.0369 43.8709Z" fill="#84A5FF"/>
<path d="M14.7532 29.7399C17.6262 32.5483 23.1669 32.0155 23.1669 32.0155C23.1669 32.0155 24.0496 26.9294 21.1766 24.1211C18.3036 21.3127 12.7629 21.8455 12.7629 21.8455C12.7629 21.8455 11.8802 26.9316 14.7532 29.7399Z" fill="#5477D8"/>
<path d="M14.7532 42.7526C17.6262 45.561 23.1669 45.0281 23.1669 45.0281C23.1669 45.0281 24.0496 39.9421 21.1766 37.1338C18.3036 34.3254 12.7629 34.8582 12.7629 34.8582C12.7629 34.8582 11.8802 39.9443 14.7532 42.7526Z" fill="#5477D8"/>
<path d="M33.3737 29.7409C30.5008 32.5492 24.9601 32.0164 24.9601 32.0164C24.9601 32.0164 24.0774 26.9304 26.9504 24.1221C29.8233 21.3137 35.364 21.8465 35.364 21.8465C35.364 21.8465 36.2467 26.9326 33.3737 29.7409Z" fill="#5477D8"/>
<path d="M33.3737 42.7526C30.5008 45.561 24.9601 45.0281 24.9601 45.0281C24.9601 45.0281 24.0774 39.9421 26.9504 37.1338C29.8233 34.3254 35.364 34.8582 35.364 34.8582C35.364 34.8582 36.2467 39.9443 33.3737 42.7526Z" fill="#5477D8"/>
</g>
<defs>
<clipPath id="clip0_721_10135">
<rect width="48" height="48" rx="6.82927" fill="white"/>
</clipPath>
</defs>
</svg>
