<svg width="48" height="48" viewBox="0 0 48 48" fill="none" xmlns="http://www.w3.org/2000/svg">
<g clip-path="url(#clip0_721_10152)">
<path d="M33.8463 10.2457C34.3227 10.2457 34.7127 9.8588 34.6717 9.38417C34.5859 8.39181 34.3523 7.41687 33.9774 6.49339C33.4945 5.30376 32.7867 4.22283 31.8944 3.31233C31.0021 2.40182 29.9428 1.67957 28.777 1.18681C27.6111 0.694051 26.3616 0.44043 25.0997 0.44043C23.8378 0.44043 22.5883 0.694051 21.4224 1.18681C20.2566 1.67957 19.1973 2.40182 18.305 3.31233C17.4127 4.22283 16.7049 5.30376 16.222 6.49339C15.8471 7.41687 15.6135 8.39181 15.5277 9.38417C15.4867 9.8588 15.8767 10.2457 16.3531 10.2457V10.2457C16.8295 10.2457 17.211 9.85846 17.261 9.38469C17.3413 8.62373 17.5277 7.87687 17.8159 7.16707C18.2121 6.19102 18.7928 5.30416 19.5249 4.55712C20.257 3.81009 21.1261 3.21751 22.0826 2.81322C23.0392 2.40892 24.0644 2.20084 25.0997 2.20084C26.135 2.20084 27.1602 2.40892 28.1168 2.81321C29.0733 3.21751 29.9424 3.81009 30.6745 4.55712C31.4066 5.30416 31.9873 6.19102 32.3835 7.16707C32.6717 7.87687 32.8581 8.62373 32.9384 9.38468C32.9884 9.85846 33.3699 10.2457 33.8463 10.2457V10.2457Z" fill="#00EFD8"/>
<path d="M1.4876 10.2457C1.0112 10.2457 0.621136 10.6327 0.662164 11.1073C0.747946 12.0996 0.981589 13.0746 1.35646 13.9981C1.83936 15.1877 2.54717 16.2686 3.43946 17.1791C4.33176 18.0896 5.39106 18.8119 6.5569 19.3046C7.72274 19.7974 8.97228 20.051 10.2342 20.051C11.4961 20.051 12.7456 19.7974 13.9114 19.3046C15.0773 18.8119 16.1366 18.0896 17.0289 17.1791C17.9212 16.2686 18.629 15.1877 19.1119 13.9981C19.4868 13.0746 19.7204 12.0996 19.8062 11.1073C19.8472 10.6326 19.4571 10.2457 18.9807 10.2457V10.2457C18.5043 10.2457 18.1228 10.633 18.0729 11.1068C17.9926 11.8677 17.8061 12.6146 17.518 13.3244C17.1218 14.3004 16.5411 15.1873 15.809 15.9343C15.0769 16.6814 14.2078 17.2739 13.2512 17.6782C12.2947 18.0825 11.2695 18.2906 10.2342 18.2906C9.19883 18.2906 8.17363 18.0825 7.21711 17.6782C6.26058 17.2739 5.39145 16.6814 4.65936 15.9343C3.92727 15.1873 3.34654 14.3004 2.95033 13.3244C2.6622 12.6146 2.47576 11.8677 2.39548 11.1068C2.3455 10.633 1.964 10.2457 1.4876 10.2457V10.2457Z" fill="#00EFD8"/>
<path d="M31.5176 10.284C31.9858 10.284 32.3707 9.90308 32.3143 9.43825C32.2377 8.80544 32.0751 8.18467 31.8302 7.59332C31.4768 6.74027 30.9589 5.96517 30.306 5.31227C29.6531 4.65937 28.878 4.14147 28.025 3.78812C27.1719 3.43478 26.2576 3.25291 25.3343 3.25291C24.411 3.25291 23.4967 3.43478 22.6436 3.78812C21.7906 4.14147 21.0155 4.65938 20.3626 5.31227C19.7097 5.96517 19.1918 6.74028 18.8384 7.59333C18.5935 8.18467 18.4309 8.80544 18.3543 9.43825C18.2979 9.90308 18.6828 10.284 19.151 10.284V10.284C19.6192 10.284 19.9919 9.9021 20.066 9.43976C20.1318 9.02968 20.2453 8.6277 20.405 8.24221C20.6731 7.59488 21.0661 7.0067 21.5615 6.51126C22.057 6.01581 22.6452 5.62281 23.2925 5.35467C23.9398 5.08654 24.6336 4.94853 25.3343 4.94853C26.035 4.94853 26.7288 5.08654 27.3761 5.35467C28.0234 5.6228 28.6116 6.01581 29.1071 6.51126C29.6025 7.0067 29.9955 7.59488 30.2636 8.24221C30.4233 8.6277 30.5368 9.02967 30.6026 9.43976C30.6766 9.90209 31.0494 10.284 31.5176 10.284V10.284Z" fill="#00EFD8"/>
<path d="M3.81729 10.2074C3.34906 10.2074 2.96421 10.5884 3.02053 11.0532C3.09721 11.686 3.25975 12.3068 3.50469 12.8981C3.85803 13.7512 4.37594 14.5263 5.02884 15.1792C5.68174 15.8321 6.45684 16.35 7.30989 16.7033C8.16295 17.0567 9.07724 17.2385 10.0006 17.2385C10.9239 17.2385 11.8382 17.0567 12.6913 16.7033C13.5443 16.35 14.3194 15.8321 14.9723 15.1792C15.6252 14.5263 16.1431 13.7512 16.4965 12.8981C16.7414 12.3068 16.9039 11.686 16.9806 11.0532C17.0369 10.5884 16.6521 10.2074 16.1839 10.2074V10.2074C15.7156 10.2074 15.3429 10.5894 15.2688 11.0517C15.2031 11.4618 15.0896 11.8637 14.9299 12.2492C14.6618 12.8966 14.2688 13.4847 13.7733 13.9802C13.2779 14.4756 12.6897 14.8686 12.0424 15.1368C11.395 15.4049 10.7012 15.5429 10.0006 15.5429C9.29991 15.5429 8.60611 15.4049 7.95878 15.1368C7.31145 14.8686 6.72327 14.4756 6.22782 13.9802C5.73238 13.4847 5.33937 12.8966 5.07124 12.2492C4.91156 11.8637 4.79803 11.4618 4.73232 11.0517C4.65823 10.5894 4.28552 10.2074 3.81729 10.2074V10.2074Z" fill="#00EFD8"/>
<path d="M28.6351 2.56186C29.1301 1.64885 30.4404 1.64885 30.9354 2.56186L43.4567 25.6566C43.9293 26.5283 43.2981 27.5885 42.3065 27.5885H17.264C16.2724 27.5885 15.6412 26.5283 16.1138 25.6566L28.6351 2.56186Z" fill="#5477D8"/>
<path d="M24.7124 8.10672C25.2083 7.1976 26.5137 7.1976 27.0096 8.10672L36.5807 25.6538C37.0563 26.5256 36.4252 27.5886 35.4321 27.5886H16.2899C15.2968 27.5886 14.6658 26.5256 15.1413 25.6538L24.7124 8.10672Z" fill="#84A5FF"/>
<rect x="29.1309" y="27.2617" width="1.96251" height="3.27085" fill="#5477D8"/>
<path d="M25.8594 31.1863C25.8594 30.6444 26.2987 30.2051 26.8406 30.2051H33.7094C34.0707 30.2051 34.3636 30.498 34.3636 30.8592V42.6343C34.3636 44.9827 32.4599 46.8864 30.1115 46.8864V46.8864C27.7631 46.8864 25.8594 44.9827 25.8594 42.6343V31.1863Z" fill="#5477D8"/>
<rect x="27.8242" y="32.168" width="4.25211" height="2.61668" fill="#84A5FF"/>
<path d="M27.8242 36.4199H32.0763V42.7981C32.0763 43.9723 31.1245 44.9241 29.9503 44.9241V44.9241C28.7761 44.9241 27.8242 43.9723 27.8242 42.7981V36.4199Z" fill="#84A5FF"/>
</g>
<defs>
<clipPath id="clip0_721_10152">
<rect width="48" height="48" rx="5.84348" fill="white"/>
</clipPath>
</defs>
</svg>
