<svg width="48" height="48" viewBox="0 0 48 48" fill="none" xmlns="http://www.w3.org/2000/svg">
<g clip-path="url(#clip0_721_10047)">
<path d="M15.1283 21.9505C14.6547 22.2278 14.4923 22.8392 14.8064 23.2893C15.5539 24.3609 16.4659 25.3104 17.5105 26.1019C18.8196 27.0938 20.3112 27.8181 21.9002 28.2336C23.4892 28.649 25.1445 28.7474 26.7715 28.5231C28.3985 28.2989 29.9654 27.7563 31.3828 26.9265C32.8002 26.0967 34.0402 24.9958 35.0321 23.6867C36.024 22.3777 36.7483 20.886 37.1638 19.297C37.5792 17.708 37.6776 16.0528 37.4533 14.4257C37.2744 13.1274 36.8928 11.8674 36.3242 10.691C36.0854 10.1969 35.4728 10.0392 34.9992 10.3165V10.3165C34.5255 10.5938 34.3711 11.2009 34.6025 11.6986C35.0434 12.6469 35.3412 13.6574 35.4845 14.6971C35.6732 16.0656 35.5904 17.4578 35.241 18.7943C34.8916 20.1308 34.2823 21.3854 33.448 22.4865C32.6138 23.5875 31.5708 24.5134 30.3786 25.2114C29.1865 25.9094 27.8686 26.3657 26.5001 26.5543C25.1316 26.743 23.7394 26.6602 22.4029 26.3108C21.0664 25.9614 19.8118 25.3521 18.7108 24.5178C17.8743 23.884 17.1388 23.1297 16.5277 22.281C16.2069 21.8357 15.6019 21.6732 15.1283 21.9505V21.9505Z" fill="#00EFD8"/>
<path d="M22.3634 18.4397C22.8371 18.1624 22.9991 17.5513 22.6884 17.0989C21.9026 15.9546 20.9485 14.9358 19.8603 14.0818C18.5129 13.0245 16.9865 12.2406 15.3681 11.7751C13.7498 11.3095 12.0712 11.1714 10.4283 11.3685C8.78543 11.5657 7.21033 12.0943 5.79298 12.9241C4.37562 13.7539 3.14377 14.8688 2.16775 16.2049C1.19172 17.5411 0.490647 19.0725 0.104546 20.7116C-0.281555 22.3507 -0.34512 24.0655 -0.0825184 25.758C0.129557 27.1248 0.551005 28.4555 1.16428 29.7009C1.40673 30.1932 2.01897 30.351 2.49258 30.0737V30.0737C2.96619 29.7964 3.12111 29.1892 2.88538 28.6936C2.40675 27.6873 2.07584 26.6172 1.90551 25.5194C1.68464 24.0959 1.7381 22.6536 2.06285 21.2749C2.38759 19.8963 2.97726 18.6083 3.79819 17.4844C4.61911 16.3606 5.65521 15.4229 6.84734 14.7249C8.03946 14.027 9.36426 13.5824 10.7461 13.4166C12.1279 13.2507 13.5397 13.3669 14.9009 13.7585C16.2621 14.1501 17.546 14.8094 18.6793 15.6987C19.5532 16.3845 20.3244 17.1969 20.9677 18.1068C21.2845 18.5549 21.8898 18.717 22.3634 18.4397V18.4397Z" fill="#00EFD8"/>
<path d="M18.6066 19.915C18.2988 20.0953 18.1933 20.4927 18.3974 20.7852C18.8833 21.4817 19.4761 22.0989 20.1551 22.6134C21.006 23.2581 21.9755 23.729 23.0084 23.999C24.0412 24.269 25.1171 24.333 26.1747 24.1872C27.2323 24.0414 28.2508 23.6888 29.1721 23.1494C30.0933 22.61 30.8994 21.8944 31.5441 21.0435C32.1888 20.1926 32.6597 19.2231 32.9297 18.1902C33.1997 17.1574 33.2637 16.0815 33.1179 15.0239C33.0016 14.18 32.7535 13.361 32.384 12.5963C32.2287 12.2752 31.8305 12.1727 31.5227 12.3529V12.3529C31.2148 12.5331 31.1144 12.9278 31.2648 13.2512C31.5514 13.8677 31.745 14.5245 31.8382 15.2003C31.9608 16.0898 31.907 16.9948 31.6799 17.8635C31.4528 18.7322 31.0567 19.5477 30.5145 20.2634C29.9722 20.979 29.2942 21.5809 28.5194 22.0346C27.7445 22.4883 26.8878 22.7849 25.9983 22.9075C25.1088 23.0301 24.2039 22.9763 23.3351 22.7492C22.4664 22.522 21.6509 22.126 20.9353 21.5838C20.3915 21.1718 19.9135 20.6815 19.5162 20.1298C19.3077 19.8404 18.9145 19.7348 18.6066 19.915V19.915Z" fill="#00EFD8"/>
<path d="M18.8851 20.4752C19.193 20.295 19.2982 19.8979 19.0973 19.6031C18.5731 18.8338 17.9382 18.1473 17.2157 17.5703C16.3265 16.8601 15.3221 16.3298 14.26 16.0097C13.1978 15.6895 12.0986 15.5858 11.0251 15.7045C9.95167 15.8231 8.925 16.1618 8.00372 16.7012C7.08244 17.2406 6.28459 17.9701 5.65573 18.8481C5.02688 19.7261 4.57932 20.7354 4.33863 21.8184C4.09793 22.9014 4.0688 24.0368 4.25291 25.1598C4.40248 26.0722 4.6904 26.9619 5.10463 27.7955C5.26336 28.115 5.6612 28.2176 5.96904 28.0373V28.0373C6.27689 27.8571 6.37773 27.4624 6.22315 27.1409C5.89888 26.4665 5.67216 25.7501 5.55185 25.0162C5.397 24.0717 5.4215 23.1167 5.62395 22.2058C5.8264 21.2949 6.20283 20.446 6.73176 19.7075C7.26068 18.969 7.93174 18.3554 8.70663 17.9018C9.48151 17.4481 10.345 17.1632 11.2479 17.0634C12.1508 16.9636 13.0753 17.0508 13.9687 17.3201C14.8621 17.5894 15.7069 18.0354 16.4548 18.6328C17.0358 19.0969 17.5496 19.6452 17.979 20.2581C18.1837 20.5502 18.5773 20.6555 18.8851 20.4752V20.4752Z" fill="#00EFD8"/>
<path d="M22.5188 18.0034C20.4153 20.0458 16.271 19.7524 16.271 19.7524C16.271 19.7524 15.5371 16.1477 17.6406 14.1053C19.744 12.0629 23.8883 12.3563 23.8883 12.3563C23.8883 12.3563 24.6223 15.961 22.5188 18.0034Z" fill="#84A5FF"/>
<path d="M22.5175 18.0029C20.861 19.6113 17.5972 19.3803 17.5972 19.3803C17.5972 19.3803 17.0192 16.5414 18.6758 14.933C20.3323 13.3246 23.9155 12.3543 23.9155 12.3543C23.9155 12.3543 24.65 15.9324 22.5175 18.0029Z" fill="#5477D8"/>
<path fill-rule="evenodd" clip-rule="evenodd" d="M0.535156 29.8854C0.535156 29.8854 11.0335 39.715 21.1424 38.8146C23.4732 38.607 25.5798 37.8471 27.4417 36.8006C27.9231 37.3194 28.5297 37.8204 29.2469 38.1133C31.2167 38.9178 33.275 37.8476 33.275 37.8476C33.275 37.8476 32.2266 35.655 30.3969 34.7698C34.7497 31.2106 37.1428 26.6249 37.1428 26.6249C37.1428 26.6249 27.9018 16.8545 17.7929 17.7549C7.68401 18.6553 0.535156 29.8854 0.535156 29.8854Z" fill="#84A5FF"/>
<mask id="mask0_721_10047" style="mask-type:alpha" maskUnits="userSpaceOnUse" x="0" y="17" width="38" height="22">
<path fill-rule="evenodd" clip-rule="evenodd" d="M0.535156 29.8854C0.535156 29.8854 11.0335 39.715 21.1424 38.8146C23.4732 38.607 25.5798 37.8471 27.4417 36.8006C27.9231 37.3194 28.5297 37.8204 29.2469 38.1133C31.2167 38.9178 33.275 37.8476 33.275 37.8476C33.275 37.8476 32.2266 35.655 30.3969 34.7698C34.7497 31.2106 37.1428 26.6249 37.1428 26.6249C37.1428 26.6249 27.9018 16.8545 17.7929 17.7549C7.68401 18.6553 0.535156 29.8854 0.535156 29.8854Z" fill="#84A5FF"/>
</mask>
<g mask="url(#mask0_721_10047)">
<path d="M0.414062 29.9799C3.93928 32.2321 12.5761 36.5897 18.9214 36.0021C26.8532 35.2677 34.7849 28.5111 36.9882 26.6016C36.5181 28.3642 35.7152 30.7633 35.3724 31.7425L33.0223 34.6802L35.3724 37.3241L33.7567 40.1149C31.6514 39.3315 27.3526 37.7647 27.0001 37.7647C26.6475 37.7647 20.2924 39.6253 17.1588 40.5555C15.5921 40.3107 11.7535 39.498 8.93333 38.2054C5.40812 36.5897 0.560946 33.9458 0.854714 33.2113C1.08973 32.6238 0.658869 30.8122 0.414062 29.9799Z" fill="#5477D8"/>
</g>
<circle cx="10.166" cy="26.3766" r="2.64391" transform="rotate(-8.25459 10.166 26.3766)" fill="#5477D8"/>
<circle cx="11.2164" cy="26.0941" r="0.718396" transform="rotate(-8.25459 11.2164 26.0941)" fill="white"/>
<path d="M44.2264 25.4161C41.3283 27.0597 36.4403 26.1403 36.4403 26.1403C36.4403 26.1403 36.251 22.5561 39.1491 20.9125C42.0471 19.2689 46.9351 20.1883 46.9351 20.1883C46.9351 20.1883 47.1245 23.7725 44.2264 25.4161Z" fill="#5477D8"/>
<path d="M44.109 27.4439C41.415 25.5879 36.4416 26.1326 36.4416 26.1326C36.4416 26.1326 35.8362 29.6866 38.5302 31.5427C41.2242 33.3987 46.1976 32.854 46.1976 32.854C46.1976 32.854 46.8031 29.3 44.109 27.4439Z" fill="#5477D8"/>
<path d="M44.3309 25.5244C41.3699 27.1929 36.3758 26.2596 36.3758 26.2596C36.3758 26.2596 36.1824 22.6211 39.1434 20.9525C42.1044 19.284 47.2671 19.673 47.2671 19.673C47.2671 19.673 47.2919 23.8559 44.3309 25.5244Z" fill="#84A5FF"/>
<path d="M44.5507 27.5556C41.9422 25.7701 37.1269 26.2941 37.1269 26.2941C37.1269 26.2941 36.5406 29.7131 39.1491 31.4987C41.7575 33.2843 46.6682 33.3136 46.6682 33.3136C46.6682 33.3136 47.1591 29.3412 44.5507 27.5556Z" fill="#84A5FF"/>
</g>
<defs>
<clipPath id="clip0_721_10047">
<rect width="48" height="48" fill="white" transform="translate(0 48) rotate(-90)"/>
</clipPath>
</defs>
</svg>
