<svg width="48" height="48" viewBox="0 0 48 48" fill="none" xmlns="http://www.w3.org/2000/svg">
<g clip-path="url(#clip0_721_10115)">
<rect x="1.375" y="16.998" width="15.7512" height="29.5335" rx="4.92225" fill="#5477D8"/>
<circle cx="9.25025" cy="40.178" r="3.2815" fill="#FFE07C"/>
<circle cx="9.25208" cy="40.1779" r="1.64075" fill="#FFCC25"/>
<path fill-rule="evenodd" clip-rule="evenodd" d="M28.1267 4.5256C28.6483 1.8217 31.4151 0.180957 34.0378 1.02024L34.4279 1.14506C36.1771 1.70483 37.4236 3.25341 37.4235 5.09006C37.4233 8.0128 37.1418 12.6291 35.6912 16.9984H39.4394H43.0487C45.586 16.9984 47.6429 19.0553 47.6429 21.5925C47.6429 22.9647 47.0413 24.1963 46.0876 25.0381C47.0413 25.8799 47.6429 27.1115 47.6429 28.4837C47.6429 29.8558 47.0413 31.0874 46.0876 31.9292C47.0413 32.771 47.6429 34.0026 47.6429 35.3748C47.6429 36.6603 47.1149 37.8224 46.264 38.6563C47.1149 39.4901 47.6429 40.6523 47.6429 41.9378C47.6429 44.475 45.586 46.5319 43.0488 46.5319H39.4592L39.4394 46.5319H21.063C19.4319 46.5319 18.1096 45.2097 18.1096 43.5786V41.9884L18.1094 41.9378L18.1096 41.8872V35.4254L18.1094 35.3748L18.1096 35.3242V28.5343L18.1094 28.4837L18.1096 28.4331V21.6431L18.1094 21.5925L18.1096 21.5419V19.9518C18.1096 18.9916 18.5679 18.1385 19.2775 17.5991C19.8701 16.9894 20.9303 16.1367 22.2569 15.0698C22.6577 14.7475 23.0828 14.4057 23.5266 14.045C25.7206 12.0948 26.9525 9.61631 27.38 8.3965L28.1267 4.5256Z" fill="#84A5FF"/>
<mask id="mask0_721_10115" style="mask-type:alpha" maskUnits="userSpaceOnUse" x="18" y="0" width="30" height="47">
<path d="M28.1258 4.5256C28.6474 1.8217 31.4142 0.180957 34.037 1.02024L34.427 1.14506C36.1763 1.70483 37.4227 3.25341 37.4226 5.09006C37.4224 8.01281 37.141 12.6291 35.6903 16.9985H43.0527C45.5899 16.9985 47.6468 19.0553 47.6468 21.5926C47.6468 22.9647 47.0452 24.1963 46.0915 25.0381C47.0452 25.88 47.6468 27.1116 47.6468 28.4837C47.6468 29.8559 47.0452 31.0875 46.0915 31.9293C47.0452 32.7711 47.6468 34.0027 47.6468 35.3749C47.6468 36.6604 47.1188 37.8225 46.2679 38.6564C47.1188 39.4902 47.6468 40.6524 47.6468 41.9379C47.6468 44.4751 45.5899 46.532 43.0527 46.532H21.0666C19.4355 46.532 18.1133 45.2097 18.1133 43.5786V19.9518C18.1133 18.9958 18.5675 18.1459 19.2719 17.6061C19.8631 16.996 20.9264 16.1409 22.2581 15.0699C22.6589 14.7476 23.0839 14.4057 23.5278 14.0451C25.714 12.1019 26.9449 9.63415 27.3766 8.40975L28.1258 4.5256Z" fill="#84A5FF"/>
</mask>
<g mask="url(#mask0_721_10115)">
<line x1="50.7656" y1="24.919" x2="40.9211" y2="24.919" stroke="#5477D8" stroke-width="0.984449" stroke-linecap="round"/>
<line x1="50.7656" y1="31.8096" x2="40.9211" y2="31.8096" stroke="#5477D8" stroke-width="0.984449" stroke-linecap="round"/>
<line x1="50.7656" y1="38.7012" x2="40.9211" y2="38.7012" stroke="#5477D8" stroke-width="0.984449" stroke-linecap="round"/>
<path d="M20.5744 20.6528C20.5744 18.4214 22.5433 15.3478 23.5278 14.0898L20.2463 16.3869L17.9492 18.5199V44.2796L18.6055 45.5922L20.5744 46.7407H44.8575C44.5293 46.3579 43.8074 45.5922 43.5449 45.5922H32.2237H22.8715C21.2963 45.5922 20.6838 44.7172 20.5744 44.2796V20.6528Z" fill="#5477D8"/>
</g>
</g>
<defs>
<clipPath id="clip0_721_10115">
<rect width="48" height="48" rx="6.97457" fill="white"/>
</clipPath>
</defs>
</svg>
