<svg width="48" height="48" viewBox="0 0 48 48" fill="none" xmlns="http://www.w3.org/2000/svg">
<g clip-path="url(#clip0_721_10097)">
<g clip-path="url(#clip1_721_10097)">
<path opacity="0.9" fill-rule="evenodd" clip-rule="evenodd" d="M24.1107 34.5624C35.102 34.5624 43.7036 27.0407 43.7036 16.0495C43.7036 3.09044 33.2507 0.467773 22.2595 0.467773C22.0148 3.0356 19.5896 3.22897 16.597 3.46757C12.0381 3.83106 6.1623 4.29954 4.6721 13.4268C3.90078 23.4547 13.1195 34.5624 24.1107 34.5624ZM24.2644 30.7055C29.2062 30.7055 33.2123 26.6994 33.2123 21.7576C33.2123 16.8158 29.2062 12.8097 24.2644 12.8097C19.3226 12.8097 15.3165 16.8158 15.3165 21.7576C15.3165 26.6994 19.3226 30.7055 24.2644 30.7055Z" fill="#84A5FF"/>
<mask id="mask0_721_10097" style="mask-type:alpha" maskUnits="userSpaceOnUse" x="4" y="0" width="40" height="35">
<path opacity="0.9" fill-rule="evenodd" clip-rule="evenodd" d="M24.1107 34.5624C35.102 34.5624 43.7036 27.0407 43.7036 16.0495C43.7036 3.09044 33.2507 0.467773 22.2595 0.467773C22.0148 3.0356 19.5896 3.22897 16.597 3.46757C12.0381 3.83106 6.1623 4.29954 4.6721 13.4268C3.90078 23.4547 13.1195 34.5624 24.1107 34.5624ZM24.2644 30.7055C29.2062 30.7055 33.2123 26.6994 33.2123 21.7576C33.2123 16.8158 29.2062 12.8097 24.2644 12.8097C19.3226 12.8097 15.3165 16.8158 15.3165 21.7576C15.3165 26.6994 19.3226 30.7055 24.2644 30.7055Z" fill="#84A5FF"/>
</mask>
<g mask="url(#mask0_721_10097)">
<path d="M22.3706 0.467773C23.2448 1.39342 24.4613 2.52437 22.965 4.70091C21.268 7.1693 -0.22135 19.3457 20.1429 32.9218C21.8058 34.1816 22.8251 34.6776 23.4141 34.848C23.5902 34.8564 23.7574 34.864 23.9134 34.871C24.2177 34.658 24.2677 35.0949 23.4141 34.848C20.9778 34.7322 16.8143 34.4841 16.3539 34.2539C15.7368 33.9453 3.39488 28.5457 3.24061 27.3115C3.08634 26.0773 2.00641 14.5067 1.69787 11.267C1.38932 8.02722 5.0919 2.16479 6.48037 1.70197C7.86884 1.23915 15.1196 2.01052 16.0453 2.31907C16.7858 2.56591 20.5707 1.18772 22.3706 0.467773Z" fill="#5477D8"/>
</g>
<circle cx="24.2643" cy="21.7575" r="7.98291" stroke="#5477D8" stroke-width="1.93001"/>
<path d="M21.2714 43.3843C17.6652 47.1965 10.7103 46.4732 10.7103 46.4732C10.7103 46.4732 9.60237 39.5692 13.2086 35.757C16.8148 31.9449 23.7697 32.6681 23.7697 32.6681C23.7697 32.6681 24.8776 39.5721 21.2714 43.3843Z" fill="#5477D8"/>
<path d="M26.4747 43.3843C30.0809 47.1965 37.0358 46.4732 37.0358 46.4732C37.0358 46.4732 38.1437 39.5692 34.5375 35.757C30.9312 31.9449 23.9764 32.6681 23.9764 32.6681C23.9764 32.6681 22.8684 39.5721 26.4747 43.3843Z" fill="#5477D8"/>
<path d="M20.1558 42.3287C17.5474 45.0861 12.517 44.5629 12.517 44.5629C12.517 44.5629 11.7156 39.5693 14.324 36.8119C16.9324 34.0546 21.9628 34.5777 21.9628 34.5777C21.9628 34.5777 22.7642 39.5714 20.1558 42.3287Z" fill="#84A5FF"/>
<path d="M27.5552 42.3287C30.1635 45.0861 35.194 44.5629 35.194 44.5629C35.194 44.5629 35.9954 39.5693 33.387 36.8119C30.7786 34.0546 25.7482 34.5777 25.7482 34.5777C25.7482 34.5777 24.9468 39.5714 27.5552 42.3287Z" fill="#84A5FF"/>
<circle cx="24.3743" cy="32.2484" r="4.62823" fill="#FFE07C"/>
<circle cx="24.3765" cy="32.2486" r="2.77694" fill="#FFCC25"/>
</g>
</g>
<defs>
<clipPath id="clip0_721_10097">
<rect width="48" height="48" rx="7.12619" fill="white"/>
</clipPath>
<clipPath id="clip1_721_10097">
<rect width="52.7536" height="52.7536" fill="white" transform="translate(-1.9707 -3.01465)"/>
</clipPath>
</defs>
</svg>
