<svg width="60" height="60" viewBox="0 0 60 60" fill="none" xmlns="http://www.w3.org/2000/svg">
<path d="M2.56833 58.6363C1.37321 59.1947 0.133192 57.9548 0.691655 56.7596L26.7714 0.948415C27.186 0.0611063 28.3561 -0.144732 29.0486 0.547814L58.7802 30.2793C59.4727 30.9718 59.2668 32.142 58.3795 32.5565L2.56833 58.6363Z" fill="#84A5FF"/>
<path d="M3.29145 57.2293C2.1728 58.3493 0.340887 57.0624 1.0153 55.6302L26.7689 0.94023C27.1855 0.0557485 28.3532 -0.147879 29.0445 0.543416L43.4867 14.9857C44.0378 15.5367 44.0381 16.4302 43.4873 16.9816L3.29145 57.2293Z" fill="#5477D8"/>
<path d="M53.6166 4.68812C54.2259 4.37768 54.8765 5.02826 54.566 5.63753L47.9084 18.7039C47.7695 18.9764 47.8219 19.3073 48.0381 19.5235L58.4077 29.8931C58.8912 30.3766 58.4735 31.1964 57.7981 31.0894L43.314 28.7953C43.0119 28.7475 42.7134 28.8995 42.5746 29.1721L35.9169 42.2384C35.6065 42.8477 34.6977 42.7038 34.5907 42.0284L32.2967 27.5442C32.2489 27.2422 32.012 27.0053 31.71 26.9574L17.2257 24.6633C16.5503 24.5564 16.4064 23.6477 17.0157 23.3373L30.0821 16.6796C30.3545 16.5407 30.5066 16.2422 30.4588 15.9402L28.1647 1.45598C28.0578 0.780598 28.8775 0.362901 29.3611 0.846425L39.7306 11.2159C39.9468 11.4322 40.2777 11.4846 40.5502 11.3458L53.6166 4.68812Z" fill="#FFCC25"/>
<path fill-rule="evenodd" clip-rule="evenodd" d="M3.80795 38.3995C3.27282 38.1637 3.03015 37.5388 3.26593 37.0036L15.0927 10.1612C15.3285 9.62611 15.9535 9.38344 16.4886 9.61917C17.0237 9.85498 17.2664 10.4799 17.0306 11.0151L5.20381 37.8575C4.96803 38.3926 4.34309 38.6352 3.80795 38.3995Z" fill="#00EFD8"/>
<path fill-rule="evenodd" clip-rule="evenodd" d="M21.4808 54.0091C21.2589 53.468 21.5177 52.8496 22.0588 52.6277L49.199 41.501C49.74 41.2792 50.3585 41.538 50.5803 42.0791C50.8021 42.6202 50.5433 43.2386 50.0023 43.4604L22.8621 54.5871C22.3211 54.8089 21.7026 54.5501 21.4808 54.0091Z" fill="#00EFD8"/>
<mask id="mask0_284_9038" style="mask-type:alpha" maskUnits="userSpaceOnUse" x="15" y="0" width="41" height="28">
<path d="M55.0011 4.30034L32.0781 27.2233L21.8817 26.1176L15.1758 24.3529L21.8817 14.1176L28.5876 0L39.1758 8.11764L55.0011 4.30034Z" fill="#FFE07C"/>
</mask>
<g mask="url(#mask0_284_9038)">
<path d="M53.6166 4.68812C54.2259 4.37768 54.8765 5.02826 54.566 5.63753L47.9084 18.7039C47.7695 18.9764 47.8219 19.3073 48.0381 19.5235L58.4077 29.8931C58.8912 30.3766 58.4735 31.1964 57.7981 31.0894L43.314 28.7953C43.0119 28.7475 42.7134 28.8995 42.5746 29.1721L35.9169 42.2384C35.6065 42.8477 34.6977 42.7038 34.5907 42.0284L32.2967 27.5442C32.2489 27.2422 32.012 27.0053 31.71 26.9574L17.2257 24.6633C16.5503 24.5564 16.4064 23.6477 17.0157 23.3373L30.0821 16.6796C30.3545 16.5407 30.5066 16.2422 30.4588 15.9402L28.1647 1.45598C28.0578 0.780598 28.8775 0.362901 29.3611 0.846425L39.7306 11.2159C39.9468 11.4322 40.2777 11.4846 40.5502 11.3458L53.6166 4.68812Z" fill="#FFE07C"/>
</g>
</svg>
