<svg width="21" height="21" viewBox="0 0 21 21" fill="none" xmlns="http://www.w3.org/2000/svg">
<path d="M20.3848 3.41421C21.1658 2.63317 21.1658 1.36683 20.3848 0.585786C19.6037 -0.195262 18.3374 -0.195262 17.5563 0.585787L10.4852 7.65692L3.41438 0.586089C2.63333 -0.19496 1.367 -0.19496 0.585949 0.586088C-0.195099 1.36714 -0.195099 2.63347 0.58595 3.41452L7.65678 10.4854L0.585787 17.5563C-0.195262 18.3374 -0.195262 19.6037 0.585786 20.3848C1.36683 21.1658 2.63317 21.1658 3.41421 20.3848L10.4852 13.3138L17.5565 20.3851C18.3376 21.1661 19.6039 21.1661 20.3849 20.3851C21.166 19.604 21.166 18.3377 20.3849 17.5567L13.3136 10.4854L20.3848 3.41421Z" fill="white"/>
</svg>
