<svg width="48" height="48" viewBox="0 0 48 48" fill="none" xmlns="http://www.w3.org/2000/svg">
<path d="M37 41C37 42.3502 35.8795 43.8417 33.4523 45.0553C31.0849 46.239 27.7444 47 24 47C20.2556 47 16.9151 46.239 14.5477 45.0553C12.1205 43.8417 11 42.3502 11 41C11 39.6498 12.1205 38.1583 14.5477 36.9447C16.9151 35.761 20.2556 35 24 35C27.7444 35 31.0849 35.761 33.4523 36.9447C35.8795 38.1583 37 39.6498 37 41Z" stroke="#00EFD8" stroke-width="2"/>
<path fill-rule="evenodd" clip-rule="evenodd" d="M6.99902 16.6C6.99902 7.43207 14.4311 0 23.599 0C32.767 0 40.199 7.43207 40.199 16.6V17.5483H40.1997C40.1997 27.7455 27.1568 41.4998 23.5997 41.4998C20.0426 41.4998 6.99994 27.5086 6.9997 17.5486H6.99902V16.6ZM23.8361 23.714C28.4201 23.714 32.1361 19.998 32.1361 15.414C32.1361 10.8301 28.4201 7.11401 23.8361 7.11401C19.2522 7.11401 15.5361 10.8301 15.5361 15.414C15.5361 19.998 19.2522 23.714 23.8361 23.714Z" fill="#5477D8"/>
</svg>
