<svg width="49" height="49" viewBox="0 0 49 49" fill="none" xmlns="http://www.w3.org/2000/svg">
<path fill-rule="evenodd" clip-rule="evenodd" d="M6.4859 4.49092C7.31988 3.58533 8.74395 3.54072 9.634 4.3923L17.8968 12.2979C18.6957 13.0622 18.7253 14.3192 17.9589 15.1156C16.7939 16.3263 15.0089 18.1773 13.0657 20.1788C13.0713 20.8154 13.4938 22.7778 18.5021 28.1106C23.1456 32.8809 27.0951 34.643 28.5383 34.9425C30.5027 32.9349 32.322 31.0883 33.5096 29.8855C34.2863 29.0989 35.5552 29.0844 36.3541 29.8488L44.6169 37.7543C45.507 38.6059 45.5116 40.0175 44.6272 40.8748L39.1682 46.1668C38.2241 47.082 36.9432 47.5739 35.6337 47.4031C32.5481 47.0007 26.5312 45.8072 21.3827 42.3471C21.3944 42.3348 21.4061 42.3224 21.4178 42.31C13.583 38.0538 7.7855 30.7312 5.82647 27.5426L5.81144 27.5576C2.14162 22.5806 0.727842 16.6645 0.214299 13.6235C-0.00366258 12.3328 0.447801 11.0474 1.33809 10.0807L6.4859 4.49092Z" fill="#5477D8"/>
<path d="M27.6544 11.4511C30.0849 8.95773 34.0953 8.88842 36.612 11.2963C39.1287 13.7042 39.1987 17.6776 36.7683 20.171" stroke="#00EFD8" stroke-width="1.21291" stroke-linecap="round"/>
<path d="M24.0934 8.04314C28.4233 3.60105 35.568 3.47757 40.0516 7.76734C44.5352 12.0571 44.6599 19.1357 40.33 23.5778" stroke="#00EFD8" stroke-width="1.21291" stroke-linecap="round"/>
</svg>
