<svg width="26" height="26" viewBox="0 0 26 26" fill="none" xmlns="http://www.w3.org/2000/svg">
<path fill-rule="evenodd" clip-rule="evenodd" d="M17.5349 14.373C19.7296 10.7599 19.2658 5.98582 16.1434 2.86348C12.4763 -0.803616 6.53073 -0.803616 2.86362 2.86348C-0.803498 6.53059 -0.803498 12.4761 2.86362 16.1432C5.98592 19.2655 10.76 19.7294 14.3731 17.5348L21.2022 24.364C22.0754 25.2371 23.491 25.2371 24.3641 24.364C25.2372 23.4909 25.2372 22.0753 24.3641 21.2021L17.5349 14.373ZM14.8787 4.12822C17.8473 7.09683 17.8473 11.9099 14.8787 14.8785C11.9101 17.8471 7.09698 17.8471 4.12836 14.8785C1.15974 11.9099 1.15974 7.09683 4.12836 4.12822C7.09698 1.15962 11.9101 1.15962 14.8787 4.12822Z" fill="#2B3A65"/>
</svg>
