<svg width="48" height="48" viewBox="0 0 48 48" fill="none" xmlns="http://www.w3.org/2000/svg">
<g clip-path="url(#clip0_509_3498)">
<path fill-rule="evenodd" clip-rule="evenodd" d="M26.146 38.4048L26.0146 38.4236L26.146 38.4048Z" fill="#01518D"/>
<path d="M22.2834 1.20724L21.3945 1.32138L22.4296 8.99014L23.3185 8.876L22.2834 1.20724Z" fill="#01518D"/>
<path d="M17.4699 2.34762L16.6416 2.68225L19.6764 9.8284L20.5046 9.49377L17.4699 2.34762Z" fill="#01518D"/>
<path d="M38.4991 30.6406L39.0225 29.9753L32.988 25.4589L32.4646 26.1242L38.4991 30.6406Z" fill="#01518D"/>
<path d="M40.9708 26.6823L41.2998 25.9076L34.2725 23.0684L33.9435 23.8432L40.9708 26.6823Z" fill="#01518D"/>
<path d="M42.3515 22.0711L42.4443 21.2375L34.8826 20.4362L34.7897 21.2699L42.3515 22.0711Z" fill="#01518D"/>
<path d="M19.3933 -0.0010075L18.5273 0.225311L21.0258 9.31996L21.8917 9.09364L19.3933 -0.0010075Z" fill="#01518D"/>
<path d="M43.2599 25.0532L43.4834 24.2397L34.502 21.8916L34.2784 22.705L43.2599 25.0532Z" fill="#01518D"/>
<path d="M38.035 27.7082L38.4648 26.9819L33.7109 24.3049L33.2811 25.0311L38.035 27.7082Z" fill="#01518D"/>
<path d="M40.3641 19.6917L40.3408 18.8535L34.8535 18.9983L34.8768 19.8365L40.3641 19.6917Z" fill="#01518D"/>
<path d="M22.0625 29.7271L22.4915 29.8809L22.502 29.804C22.3596 29.7812 22.2131 29.7556 22.0625 29.7271Z" fill="#01518D"/>
<path d="M20.6617 29.2285L20.6162 29.3361C20.7866 29.3953 20.9617 29.4522 21.1415 29.5069L21.1678 29.4129L20.6617 29.2285Z" fill="#01518D"/>
<path d="M21.9785 29.6947V29.7084L22.0731 29.7272L22.0275 29.7118L21.9785 29.6947Z" fill="#01518D"/>
<path d="M19.7577 28.904L19.3515 28.7588L19.334 28.7878C19.4951 28.8698 19.6591 28.9472 19.826 29.0201L19.8593 28.9398L19.7577 28.904Z" fill="#01518D"/>
<path d="M20.5442 29.1841L20.6072 29.2063L20.6685 29.2285L20.6808 29.2029L19.8858 28.8818L19.8613 28.9399L19.8963 28.9536L20.5442 29.1841Z" fill="#01518D"/>
<path d="M20.6073 29.2046L20.5443 29.1824L19.8982 28.9518L19.8614 28.9381L19.8281 29.0184C20.089 29.1328 20.3534 29.2387 20.6248 29.3344L20.6703 29.2268L20.6073 29.2046Z" fill="#01518D"/>
<path d="M21.3612 29.4761L21.2579 29.4385L21.1669 29.406L21.1406 29.5C21.4138 29.5802 21.6922 29.6503 21.9741 29.7083V29.6947L21.3612 29.4761Z" fill="#01518D"/>
<path d="M19.1104 28.6717C19.1839 28.711 19.2609 28.7486 19.3345 28.7861L19.352 28.7571L19.1104 28.6717Z" fill="#01518D"/>
<path d="M13.1253 4.66299L12.4141 5.19531L17.2417 11.3318L17.9529 10.7995L13.1253 4.66299Z" fill="#01518D"/>
<path d="M9.54338 7.99619L8.99707 8.68958L11.4292 10.5085C11.818 10.4048 12.2152 10.3334 12.6164 10.295L9.54338 7.99619Z" fill="#01518D"/>
<path d="M9.03957 12.9594L6.96641 12.1259L6.61621 12.9337L9.05008 13.9175C8.9944 13.6007 8.99086 13.2772 9.03957 12.9594Z" fill="#01518D"/>
<path d="M10.003 5.02621L9.36914 5.63592L14.1633 10.3189C14.7396 10.3913 15.3054 10.5283 15.8495 10.7271L10.003 5.02621Z" fill="#01518D"/>
<path d="M10.2787 11.0175L4.27638 7.63763L3.82812 8.39422L9.60637 11.6392C9.797 11.4 10.0237 11.1904 10.2787 11.0175Z" fill="#01518D"/>
<path d="M9.63063 15.3128L4.44772 13.9584L4.21484 14.8038L10.669 16.4912C10.2696 16.1462 9.92033 15.7497 9.63063 15.3128Z" fill="#01518D"/>
<path d="M16.3252 5.22853L15.5488 5.66574L18.4108 10.5008L19.1872 10.0636L16.3252 5.22853Z" fill="#01518D"/>
<path d="M16.4186 27.4131L16.3311 27.4865L16.5639 27.6761L16.9176 27.3311L16.4186 27.4131Z" fill="#01518D"/>
<path d="M9.13214 13.9414L9.05859 13.9106C9.15241 14.4104 9.34703 14.887 9.63117 15.3128L9.72747 15.3384C9.43669 14.9155 9.23437 14.4407 9.13214 13.9414Z" fill="#01518D"/>
<path d="M12.8564 10.2814C12.9457 10.2814 13.0315 10.2729 13.1243 10.2695C13.035 10.2712 12.9457 10.2763 12.8564 10.2814Z" fill="#01518D"/>
<path d="M17.037 27.2147L16.918 27.3309L17.1351 27.295C17.0178 27.1976 17.1491 27.3257 17.037 27.2147Z" fill="#01518D"/>
<path d="M11.3517 10.5393L11.4392 10.5171H11.4287L11.2991 10.5495C10.9341 10.651 10.589 10.8115 10.2783 11.0243L10.3063 11.0397C10.6224 10.815 10.9761 10.6457 11.3517 10.5393Z" fill="#01518D"/>
<path d="M12.8113 10.2831C12.7466 10.2831 12.68 10.2831 12.6152 10.295L12.8113 10.2831Z" fill="#01518D"/>
<path d="M9.64588 11.6698L9.60386 11.6458C9.3043 12.029 9.11021 12.4805 9.04004 12.9575L9.10483 12.9797C9.16773 12.5052 9.35398 12.0543 9.64588 11.6698Z" fill="#01518D"/>
<path d="M12.6227 10.3019C12.2215 10.3403 11.8244 10.4117 11.4355 10.5154H11.4461C11.8314 10.4122 12.225 10.3407 12.6227 10.3019Z" fill="#01518D"/>
<path d="M9.10543 12.9798L9.0459 12.9558C8.99948 13.2723 9.0048 13.594 9.06166 13.9088L9.1352 13.9396C9.07294 13.6232 9.06289 13.2992 9.10543 12.9798Z" fill="#01518D"/>
<path d="M10.3066 11.0328L10.2786 11.0175C10.0223 11.1928 9.79498 11.4053 9.60449 11.6477L9.64652 11.6716C9.83171 11.4269 10.0543 11.2115 10.3066 11.0328Z" fill="#01518D"/>
<path d="M9.72969 15.3383L9.62988 15.3127C9.91971 15.749 10.269 16.1449 10.6682 16.4894L10.8083 16.527C10.395 16.1805 10.0321 15.7805 9.72969 15.3383Z" fill="#01518D"/>
<path d="M13.123 10.2694C13.2141 10.2694 13.2981 10.2694 13.3962 10.2694C13.3069 10.2677 13.2141 10.2677 13.123 10.2694Z" fill="#01518D"/>
<path d="M14.1633 10.319C13.9309 10.2904 13.6971 10.2733 13.4629 10.2678C13.7001 10.2753 13.9368 10.2947 14.172 10.3259L14.1633 10.319Z" fill="#01518D"/>
<path d="M15.8693 10.7476L15.8483 10.7271C15.3042 10.5283 14.7384 10.3914 14.1621 10.3189C14.7462 10.3971 15.3191 10.541 15.8693 10.7476Z" fill="#01518D"/>
<path d="M37.551 31.4845L27.8628 23.9238L24.6532 24.4669C24.9702 23.2816 25.3309 22.1066 25.604 20.9111C25.7196 20.409 25.5883 19.994 25.3659 19.5448C24.8721 18.5389 24.0229 18.0077 23.0318 17.4954C21.3614 16.5987 20.3108 19.3672 21.6048 20.2211C23.1194 21.2202 22.461 22.3628 21.955 23.7052C21.8377 24.0672 21.4559 25.4728 21.1373 25.5616C19.0816 26.1355 17.8454 26.4156 15.7705 26.9279L14.9668 29.2335L33.135 34.2478C34.4027 34.5245 36.4251 34.6953 37.7226 34.2478C40.1424 33.4127 38.1813 31.9713 37.551 31.4845ZM30.8622 32.7586L16.5672 27.6674L21.5365 26.2175C21.5855 26.2038 21.5873 26.1321 21.61 26.0894C22.1629 25.1153 22.6541 24.1092 23.0809 23.0767C23.4888 22.011 23.7252 21.5584 23.0809 20.45C22.897 20.1323 22.2211 19.2203 21.8289 18.9846C21.9602 18.2144 22.7272 18.4074 23.2437 18.6806C23.9038 19.1452 24.5499 19.8761 24.6112 20.6788C24.6865 21.695 24.2102 24.3251 23.6447 25.3054C23.2945 25.9049 23.2594 26.0108 22.5941 25.9459C22.5223 25.9459 22.3157 25.9459 22.3157 26.0159C22.3157 26.0859 22.3945 26.156 22.468 26.2123C23.2244 26.7947 25.6916 27.1585 24.7811 25.5633C24.7548 25.5189 24.641 25.4506 24.6918 25.4352C25.6145 25.1466 26.5583 24.9229 27.4933 24.6787L37.0117 31.9695C37.1973 32.1062 37.9537 32.5724 37.8994 32.9943C37.6613 35.0318 31.4628 32.9499 30.864 32.7586H30.8622Z" fill="#01518D"/>
<path d="M19.4726 19.2989C19.3691 18.8462 19.3407 18.3803 19.3886 17.9189C19.9507 16.6619 20.6703 15.6816 22.3495 16.3511C23.2548 16.7115 23.3318 17.1077 23.4159 17.205L24.1163 17.6388L23.7906 16.8156C23.5314 16.3426 22.7873 15.6031 22.2304 15.4493C22.181 15.4374 22.1306 15.4294 22.0799 15.4254L21.2569 14.7269C19.7686 13.0788 17.9423 11.4956 15.8481 10.7391L15.8691 10.7595C15.3213 10.5565 14.7515 10.4155 14.1707 10.3394C13.9355 10.3082 13.6988 10.2889 13.4615 10.2813H13.3967C13.3057 10.2813 13.2216 10.2813 13.1236 10.2813C13.0255 10.2813 12.9485 10.2813 12.8557 10.2933H12.8137L12.6246 10.3104C12.2244 10.3499 11.8285 10.4225 11.4409 10.5273L11.3533 10.5495C10.9764 10.6533 10.6209 10.8203 10.3027 11.0431C10.0506 11.2212 9.82796 11.4361 9.64263 11.6801C9.35363 12.062 9.16867 12.5092 9.10508 12.9798C9.0633 13.2987 9.07394 13.6222 9.13659 13.9379C9.2399 14.4375 9.44341 14.9123 9.73543 15.3349C10.0385 15.7798 10.4025 16.182 10.8175 16.5304C11.7027 17.2547 12.7012 17.8359 13.7749 18.252C13.9676 18.3305 14.1672 18.4074 14.3738 18.4842C17.7007 19.6951 18.1384 19.789 21.4162 20.7591C20.609 19.6712 20.609 19.6063 19.4726 19.2989ZM19.2975 16.5782V16.5936V16.609L19.2853 16.6329L19.2695 16.6636L19.2555 16.691L19.2275 16.7525C19.1872 16.8468 19.1521 16.9431 19.1224 17.0411L18.9106 16.3135C18.5061 15.8524 16.946 14.592 15.5732 13.82C14.6067 13.2821 13.7382 12.9798 13.4195 13.3623C13.0255 14.5818 11.3586 13.6424 11.4584 12.6929C11.482 12.5423 11.5407 12.3991 11.6299 12.2741C11.7192 12.1492 11.8366 12.0459 11.9732 11.9721C12.0565 11.9182 12.1437 11.8703 12.2341 11.8287C12.4474 11.731 12.6719 11.6587 12.903 11.6135C13.4543 11.5113 14.0237 11.5568 14.5506 11.745C15.226 11.9904 15.8515 12.3506 16.3979 12.809C17.2296 13.4751 18.2802 14.2931 19.1785 15.4698C19.7213 15.036 20.1275 14.9284 20.8227 15.4528C20.1783 15.5211 19.597 16.0471 19.3186 16.5509L19.2975 16.5782Z" fill="#01518D"/>
<path d="M41.0618 36.0701C41.0618 36.0701 41.8165 35.6398 42.2157 35.3443L41.6729 36.7191L40.8867 36.9241L41.0618 36.0701Z" fill="#01518D"/>
<path fill-rule="evenodd" clip-rule="evenodd" d="M16.587 26.7521L16.4242 26.6189L16.1562 26.875L16.587 26.7521Z" fill="#01518D"/>
<path d="M31.5505 9.05165C31.5505 11.0311 30.4999 12.1104 28.6386 12.1104H27.3148V15.5979H26.1592V6.03384H28.6368C30.4999 6.03897 31.5505 7.132 31.5505 9.05165ZM30.3878 9.05165C30.3878 7.75367 29.8135 7.09785 28.6368 7.09785H27.3148V11.0498H28.6456C29.8135 11.0498 30.3878 10.4179 30.3878 9.05165Z" fill="#01518D"/>
<path d="M32.7695 12.8397V8.79718C32.7695 6.91853 33.8621 5.86136 35.4993 5.86136C37.1803 5.86136 38.2151 6.87242 38.3131 8.7152H37.1785C37.0945 7.48554 36.5061 6.9117 35.4836 6.9117C34.545 6.9117 33.9077 7.51287 33.9077 8.79035V12.8397C33.9077 14.1104 34.566 14.7184 35.5168 14.7184C36.5534 14.7184 37.126 14.1309 37.238 12.9302H38.3727C38.2606 14.7457 37.224 15.7704 35.5168 15.7704C33.8762 15.7619 32.7695 14.7235 32.7695 12.8397Z" fill="#01518D"/>
<path d="M39.5732 12.5938V9.02945C39.5732 7.07565 40.6659 5.86136 42.4851 5.86136C44.3044 5.86136 45.383 7.07736 45.383 9.02945V12.5938C45.383 14.5595 44.3044 15.7755 42.4851 15.7755C40.6659 15.7755 39.5732 14.5595 39.5732 12.5938ZM44.2081 12.5938V9.02945C44.2081 7.70586 43.6198 6.95439 42.4851 6.95439C41.3505 6.95439 40.7499 7.70586 40.7499 9.02945V12.5938C40.7499 13.9327 41.3382 14.6842 42.4851 14.6842C43.632 14.6842 44.2098 13.931 44.2098 12.5938H44.2081Z" fill="#01518D"/>
<path d="M47.814 25.4917C47.4516 24.8905 46.5971 24.2962 46.5778 24.1681C46.3414 22.6054 46.9806 21.152 47.6074 19.7567C48.0224 18.4638 46.9595 18.1222 46.2241 17.8353C44.6973 23.4081 42.1093 33.2232 41.6611 36.3247C41.5087 36.3947 41.3617 36.4596 41.2146 36.5228C41.3897 36.2598 41.5648 35.9729 41.7574 35.6586C38.4568 37.7951 35.1159 36.7636 31.7768 36.1044L31.8451 36.1163L30.9048 33.9046L33.1916 34.417C34.8603 34.6971 36.4519 34.9618 37.7564 34.5126C39.7893 33.8141 38.807 32.5486 38.033 31.9115C39.7472 34.1898 34.1966 35.2043 30.9153 32.8833L30.39 32.6955L30.3375 32.5725L29.2221 32.1728L29.2746 32.2975L28.1908 31.9081L28.1592 31.7937L27.1682 31.4521L27.198 31.5614L26.354 31.254L26.3382 31.1396L25.4242 30.8151L25.44 30.9278L23.9131 30.383L23.3248 30.1729L22.3827 37.1462L21.53 37.0369L22.4983 29.8877L22.0693 29.734L21.9748 29.7152L19.6109 38.3075L18.7827 38.0855L21.1431 29.4949C20.968 29.4437 20.7929 29.3867 20.6178 29.3241L17.7637 36.0446L16.9687 35.7235L19.8211 29.0082C19.6553 28.9342 19.4913 28.8567 19.329 28.7759L16.6693 33.2915L15.9251 32.8731L18.5323 28.4685L18.4798 28.4497H18.4676L17.979 28.2789L13.6016 33.8448L12.9187 33.3325L17.1333 27.9766H17.1105L16.7603 27.8502L16.5695 27.6931L10.6161 33.4999L9.99805 32.8936L16.4277 26.6223C16.3033 26.4908 16.1825 26.3576 16.067 26.2209L10.1644 30.6375L9.6391 29.9714L15.5487 25.5514C15.4448 25.4057 15.3444 25.2571 15.2475 25.1057L10.6302 27.7068L10.1994 26.9843L14.822 24.3816C14.7391 24.2244 14.6603 24.0645 14.5856 23.9016L7.69551 26.6855L7.36632 25.9101L14.2652 23.1229C14.2045 22.9566 14.1461 22.7858 14.0901 22.6105L5.27915 24.9195L5.05677 24.11L13.8835 21.8027C13.8461 21.6308 13.8134 21.46 13.7854 21.2903L6.356 22.2365L6.24394 21.4047L13.6909 20.4483C13.678 20.2753 13.6699 20.1005 13.6664 19.924H8.26107V19.0855H13.6786C13.6961 18.802 13.7276 18.5236 13.7679 18.2469C12.6948 17.8307 11.6969 17.2495 10.8123 16.5254L10.6722 16.4878C10.8473 16.6398 11.0224 16.7884 11.2325 16.937H11.2027C11.07 16.9558 10.9355 16.9604 10.8017 16.9506C8.84765 16.8379 1.74391 15.7551 2.54061 18.042C0.86142 19.2904 1.33594 21.2374 1.43399 23.2885L0.507721 23.9853C0.0191968 24.3508 -0.0385856 24.8649 0.0174458 25.4473C1.2799 27.5309 5.73265 42.0512 6.75698 42.8436C8.07197 43.8683 18.781 39.8395 21.5265 40.2511C23.4911 42.0358 25.2491 42.0631 27.6882 40.3074C29.8349 40.5568 40.9572 43.7539 42.1408 42.7616C44.5152 38.0086 44.242 33.6997 47.7895 26.653C47.9909 26.25 48.0574 25.8964 47.814 25.4917ZM1.34644 24.8376C1.46376 24.414 2.12213 24.3542 2.53186 24.3952L5.88849 37.7832C5.60308 37.7542 2.17816 27.3686 1.34644 24.8376ZM29.8262 33.6006L30.8067 35.9319C30.2814 35.8448 29.7561 35.7764 29.2308 35.7389L28.541 33.2334L29.8262 33.6006ZM23.9184 36.989V31.9064L25.6448 32.4L26.1299 35.9865C25.3422 36.2039 24.5951 36.5423 23.9166 36.989H23.9184ZM26.9773 35.814L26.5466 32.6613L27.5779 32.9619L28.3361 35.7133C27.8812 35.7123 27.427 35.7455 26.9773 35.8123V35.814ZM42.1408 38.3861L45.4975 24.9981C45.9072 24.9571 46.5673 25.0152 46.6829 25.4404C45.8512 27.9698 42.4315 38.3553 42.1408 38.3861Z" fill="#01518D"/>
</g>
<defs>
<clipPath id="clip0_509_3498">
<rect width="48" height="48" fill="white"/>
</clipPath>
</defs>
</svg>
