<svg width="81" height="80" viewBox="0 0 81 80" fill="none" xmlns="http://www.w3.org/2000/svg">
<g clip-path="url(#clip0_872_10979)">
<path d="M37.8594 0H41.2397V42.1408H37.8594V0Z" fill="#1198DA"/>
<path d="M43.9351 2.35889L46.2975 4.77669L40.3701 10.5681L38.0078 8.15028L43.9351 2.35889Z" fill="#1198DA"/>
<path d="M47.1621 9.68213L49.1374 12.4252L39.778 19.1649L37.8027 16.4218L47.1621 9.68213Z" fill="#1198DA"/>
<path d="M31.948 9.68213L29.9727 12.4252L39.3322 19.1649L41.3074 16.4218L31.948 9.68213Z" fill="#1198DA"/>
<path d="M35.2627 2.35889L32.9004 4.77669L38.8277 10.5681L41.1901 8.15028L35.2627 2.35889Z" fill="#1198DA"/>
<path fill-rule="evenodd" clip-rule="evenodd" d="M46.8005 21.1515C46.8275 23.3391 46.7905 27.7327 46.7599 30.1762L50.1399 30.2184C50.1767 27.2815 50.2333 20.8778 50.1343 19.6907C50.0584 18.7795 49.6828 17.9506 48.9329 17.4383C48.2457 16.9689 47.4877 16.9364 46.9566 17.0544L46.622 17.1288L38.9062 22.6234L40.8671 25.3768L46.8005 21.1515ZM46.7562 19.9037L46.7565 19.9043L46.7562 19.9037Z" fill="#1198DA"/>
<path d="M42.3666 80.0002H38.9863V37.8594H42.3666V80.0002Z" fill="#1198DA"/>
<path d="M36.29 77.6413L33.9277 75.2235L39.8551 69.4321L42.2174 71.8499L36.29 77.6413Z" fill="#1198DA"/>
<path d="M33.0632 70.3178L31.0879 67.5747L40.4474 60.835L42.4226 63.5781L33.0632 70.3178Z" fill="#1198DA"/>
<path d="M48.2774 70.3178L50.2527 67.5747L40.8933 60.835L38.918 63.5781L48.2774 70.3178Z" fill="#1198DA"/>
<path d="M44.9626 77.6413L47.3249 75.2235L41.3975 69.4321L39.0352 71.8499L44.9626 77.6413Z" fill="#1198DA"/>
<path fill-rule="evenodd" clip-rule="evenodd" d="M33.4243 58.8486C33.3972 56.661 33.4343 52.2674 33.4648 49.8239L30.0848 49.7817C30.0481 52.7186 29.9916 59.1223 30.0905 60.3094C30.1664 61.2206 30.542 62.0495 31.2919 62.5618C31.979 63.0312 32.7372 63.0637 33.2682 62.9457L33.6028 62.8713L41.3186 57.3767L39.3578 54.6233L33.4243 58.8486ZM33.4685 60.0964L33.4684 60.0958L33.4685 60.0964Z" fill="#1198DA"/>
<path d="M80.4513 37.6338V41.0141H38.3105V37.6338H80.4513Z" fill="#1198DA"/>
<path d="M78.092 43.7101L75.6742 46.0724L69.8828 40.145L72.3006 37.7827L78.092 43.7101Z" fill="#1198DA"/>
<path d="M70.768 46.937L68.0249 48.9123L61.2852 39.5528L64.0283 37.5776L70.768 46.937Z" fill="#1198DA"/>
<path d="M70.768 31.7219L68.0249 29.7466L61.2852 39.106L64.0283 41.0813L70.768 31.7219Z" fill="#1198DA"/>
<path d="M78.092 35.0381L75.6742 32.6758L69.8828 38.6032L72.3006 40.9655L78.092 35.0381Z" fill="#1198DA"/>
<path fill-rule="evenodd" clip-rule="evenodd" d="M59.2993 46.5759C57.1117 46.6029 52.7181 46.5659 50.2746 46.5354L50.2324 49.9154C53.1693 49.9521 59.573 50.0086 60.7601 49.9097C61.6713 49.8338 62.5002 49.4582 63.0125 48.7083C63.4819 48.0212 63.5144 47.263 63.3964 46.732L63.322 46.3974L57.8274 38.6816L55.074 40.6424L59.2993 46.5759ZM60.5471 46.5317L60.5465 46.5318L60.5471 46.5317Z" fill="#1198DA"/>
<path d="M0 42.141L1.47756e-07 38.7607H42.1408V42.141H0Z" fill="#1198DA"/>
<path d="M2.35938 36.065L4.77717 33.7026L10.5685 39.63L8.15076 41.9923L2.35938 36.065Z" fill="#1198DA"/>
<path d="M9.68164 32.8376L12.4247 30.8623L19.1644 40.2217L16.4213 42.197L9.68164 32.8376Z" fill="#1198DA"/>
<path d="M9.68164 48.0528L12.4247 50.0281L19.1644 40.6686L16.4213 38.6934L9.68164 48.0528Z" fill="#1198DA"/>
<path d="M2.35938 44.7365L4.77717 47.0988L10.5685 41.1715L8.15076 38.8091L2.35938 44.7365Z" fill="#1198DA"/>
<path fill-rule="evenodd" clip-rule="evenodd" d="M21.151 33.1987C23.3386 33.1717 27.7322 32.948 30.1757 32.9785L30.2179 29.8593C27.281 29.8225 20.8773 29.766 19.6902 29.865C18.779 29.9409 17.9501 30.3164 17.4378 31.0663C16.9684 31.7535 16.9359 32.5116 17.0539 33.0427L17.1283 33.3772L22.6229 41.093L25.3763 39.1322L21.151 33.1987ZM19.9032 33.243L19.9038 33.2428L19.9032 33.243Z" fill="#1198DA"/>
<path d="M66.8371 10.0425L69.2274 12.4328L39.4293 42.2308L37.0391 39.8406L66.8371 10.0425Z" fill="#1198DA"/>
<path d="M69.4643 16.0072L69.4251 19.3873L61.1387 19.2911L61.1779 15.9111L69.4643 16.0072Z" fill="#1198DA"/>
<path d="M66.5693 23.4672L66.0264 26.8036L54.6426 24.9511L55.1855 21.6147L66.5693 23.4672Z" fill="#1198DA"/>
<path d="M55.8091 12.7085L52.4727 13.2514L54.3252 24.6352L57.6615 24.0923L55.8091 12.7085Z" fill="#1198DA"/>
<path d="M63.3331 9.87549L59.9531 9.91471L60.0492 18.2011L63.4293 18.1619L63.3331 9.87549Z" fill="#1198DA"/>
<path fill-rule="evenodd" clip-rule="evenodd" d="M58.2029 31.3221C56.6751 32.8882 53.5422 35.9687 51.7928 37.6749L54.153 40.0948C56.2556 38.0441 60.8237 33.556 61.5931 32.6466C62.1838 31.9486 62.5044 31.0969 62.3364 30.2044C62.1824 29.3866 61.6692 28.8275 61.2103 28.5355L60.9212 28.3515L51.58 26.7808L51.0195 30.1143L58.2029 31.3221ZM59.0539 30.4086L59.0536 30.4091L59.0539 30.4086Z" fill="#1198DA"/>
<path d="M13.4548 69.7982L11.0645 67.408L40.8626 37.6099L43.2528 40.0002L13.4548 69.7982Z" fill="#1198DA"/>
<path d="M10.8262 63.8336L10.8654 60.4536L19.1518 60.5497L19.1126 63.9298L10.8262 63.8336Z" fill="#1198DA"/>
<path d="M13.7227 56.3735L14.2656 53.0371L25.6494 54.8896L25.1065 58.2259L13.7227 56.3735Z" fill="#1198DA"/>
<path d="M24.4814 67.1323L27.8178 66.5894L25.9653 55.2056L22.6289 55.7485L24.4814 67.1323Z" fill="#1198DA"/>
<path d="M16.9575 69.9652L20.3375 69.926L20.2414 61.6396L16.8613 61.6788L16.9575 69.9652Z" fill="#1198DA"/>
<path fill-rule="evenodd" clip-rule="evenodd" d="M22.0882 48.5188C23.6159 46.9528 26.7489 43.8722 28.4983 42.166L26.1381 39.7461C24.0354 41.7969 19.4674 46.285 18.6979 47.1944C18.1073 47.8924 17.7867 48.7441 17.9547 49.6366C18.1087 50.4544 18.6218 51.0134 19.0808 51.3055L19.3699 51.4895L28.7111 53.0601L29.2716 49.7266L22.0882 48.5188ZM21.2372 49.4324L21.2375 49.4319L21.2372 49.4324Z" fill="#1198DA"/>
<path d="M70.3426 66.7703L67.9524 69.1605L38.1543 39.3625L40.5445 36.9722L70.3426 66.7703Z" fill="#1198DA"/>
<path d="M64.3781 69.3989L60.998 69.3597L61.0942 61.0732L64.4742 61.1125L64.3781 69.3989Z" fill="#1198DA"/>
<path d="M56.9164 66.5024L53.5801 65.9595L55.4325 54.5757L58.7689 55.1186L56.9164 66.5024Z" fill="#1198DA"/>
<path d="M67.6767 55.7436L67.1338 52.4072L55.75 54.2596L56.293 57.596L67.6767 55.7436Z" fill="#1198DA"/>
<path d="M70.5093 63.2673L70.47 59.8872L62.1836 59.9834L62.2228 63.3635L70.5093 63.2673Z" fill="#1198DA"/>
<path fill-rule="evenodd" clip-rule="evenodd" d="M49.0637 58.1375C47.4977 56.6097 44.0734 53.8205 42.3672 52.0711L40.291 54.0876C42.3417 56.1902 46.8299 60.7583 47.7392 61.5277C48.4372 62.1183 49.2889 62.439 50.1814 62.2709C50.9992 62.117 51.5583 61.6038 51.8503 61.1449L52.0344 60.8557L53.605 51.5146L50.2715 50.9541L49.0637 58.1375ZM49.9772 58.9885L49.9767 58.9882L49.9772 58.9885Z" fill="#1198DA"/>
<path d="M10.2676 13.0704L12.6578 10.6802L42.4559 40.4783L40.0657 42.8685L10.2676 13.0704Z" fill="#1198DA"/>
<path d="M16.2329 10.4419L19.613 10.4811L19.5168 18.7675L16.1367 18.7283L16.2329 10.4419Z" fill="#1198DA"/>
<path d="M23.6922 13.3384L27.0286 13.8813L25.1762 25.2651L21.8398 24.7222L23.6922 13.3384Z" fill="#1198DA"/>
<path d="M12.9336 24.0971L13.4766 27.4335L24.8603 25.581L24.3174 22.2446L12.9336 24.0971Z" fill="#1198DA"/>
<path d="M10.1016 16.5737L10.1408 19.9537L18.4273 19.8576L18.388 16.4775L10.1016 16.5737Z" fill="#1198DA"/>
<path fill-rule="evenodd" clip-rule="evenodd" d="M31.5472 21.7034C33.1132 23.2311 36.1938 26.3641 37.9 28.1135L40.3199 25.7533C38.2691 23.6506 33.781 19.0826 32.8717 18.3131C32.1736 17.7225 31.322 17.4019 30.4295 17.5699C29.6117 17.7239 29.0526 18.237 28.7605 18.696L28.5765 18.9851L27.0059 28.3263L30.3394 28.8868L31.5472 21.7034ZM30.6337 20.8524L30.6342 20.8527L30.6337 20.8524Z" fill="#1198DA"/>
</g>
<defs>
<clipPath id="clip0_872_10979">
<rect width="81" height="80" fill="white"/>
</clipPath>
</defs>
</svg>
