<svg width="80" height="80" viewBox="0 0 80 80" fill="none" xmlns="http://www.w3.org/2000/svg">
<path d="M38.4002 7.78671L37.5469 7.89334C37.5469 7.46663 37.5469 7.14671 39.0402 6.82671C40.2349 6.57071 40.6047 5.93782 40.6402 5.65338C38.0802 6.18671 37.9735 3.84005 38.6135 2.66671C38.4713 2.73782 38.1869 2.66671 38.1869 2.24005C38.2935 1.17338 39.0758 0.391157 39.5735 0.213379C39.2535 1.49338 40.7469 5.76005 43.3069 3.83999C44.0535 2.98665 44.5869 3.94665 44.9069 4.37332C44.4802 4.37332 44.3735 4.47999 44.2669 4.90665C44.3735 6.29332 42.8802 7.04 42.3469 7.04C39.8722 6.69867 39.3958 8.39112 39.4669 9.28H38.6135L38.9335 8.42671L37.9735 8.64L38.4002 7.78671Z" fill="#E09042"/>
<path d="M40.2133 80C31.8506 67.8827 14.3288 62.4355 6.61328 61.2267V54.8267C18.8799 54.8267 34.7733 66.0267 40.2133 73.0667C52.4159 59.2427 67.3422 55.1467 73.2799 54.8267V61.2267C63.5733 61.2267 46.0799 71.5733 40.2133 80Z" fill="#3B353B"/>
<path d="M40.2133 63.8932C31.6799 51.7332 14.1866 45.0132 6.61328 45.0132V38.1865C18.8799 38.1865 34.7733 49.3865 40.2133 56.4265C52.4159 42.6025 67.3422 38.5065 73.2799 38.1865V45.0132C63.5733 45.0132 45.2266 55.5732 40.2133 63.8932Z" fill="#37373A"/>
<path d="M40.2133 72.1064C30.6133 61.0131 15.6799 54.3997 6.61328 53.8664V45.7597C18.8799 45.7597 36.7999 58.1331 40.2133 65.1731C43.8399 57.3864 62.9333 45.5464 73.2799 45.5464V54.0797C63.5733 54.0797 47.6799 63.2531 40.2133 72.1064Z" fill="#37373A"/>
<path d="M73.2796 54.0797C63.5729 54.0797 47.6796 63.2531 40.2129 72.1064V65.1731C43.8396 57.3864 62.9329 45.5464 73.2796 45.5464V54.0797Z" fill="#DF9044"/>
<path d="M39.2536 53.5468C40.1069 46.5494 33.138 37.9734 29.5469 34.5601C30.4003 33.2801 31.1469 28.8001 30.1869 24.9601C34.5603 28.6934 37.9736 37.6534 40.5336 45.1201C42.3256 34.9654 35.378 27.1645 31.6803 24.5334L42.6669 8.42676C41.9203 10.6312 40.0003 16.5761 38.2936 22.7201C48.6403 37.9734 41.6003 50.4534 39.2536 53.5468Z" fill="#E09046"/>
<path d="M20.1602 39.1468C22.2224 39.3601 26.6028 39.1681 27.6268 36.6934C29.2268 37.3334 37.9735 43.9468 39.0402 53.4401C35.7335 50.0268 23.5735 40.3201 20.1602 39.1468Z" fill="#E09046"/>
<path d="M39.6797 53.6535C43.413 52.338 50.709 47.5949 50.0263 39.1469C48.9597 33.3869 49.173 31.4669 51.093 28.5869C50.7517 25.3442 50.5952 23.3246 50.5597 22.7202C48.0352 23.5735 43.3277 27.2642 44.693 35.2002C45.1197 38.5069 47.1463 43.8402 39.6797 53.6535Z" fill="#E09046"/>
<path d="M32.0001 21.547C33.0605 21.547 33.9201 20.6874 33.9201 19.627C33.9201 18.5666 33.0605 17.707 32.0001 17.707C30.9397 17.707 30.0801 18.5666 30.0801 19.627C30.0801 20.6874 30.9397 21.547 32.0001 21.547Z" fill="#E09046"/>
</svg>
