<svg width="80" height="80" viewBox="0 0 80 80" fill="none" xmlns="http://www.w3.org/2000/svg">
<path fill-rule="evenodd" clip-rule="evenodd" d="M31.291 20.5456L60.7618 30.2059C62.1919 30.6747 63.7313 29.8953 64.2001 28.4652C64.6689 27.0351 63.8895 25.4957 62.4594 25.0269L32.9293 15.3472C32.843 15.6741 32.7557 15.9969 32.6675 16.3137L62.1479 25.9772C63.0532 26.2739 63.5466 27.2484 63.2498 28.1537C62.9531 29.0591 61.9786 29.5524 61.0733 29.2556L31.6316 19.6049C31.5223 19.9139 31.4085 20.228 31.291 20.5456Z" fill="#EE7F1A"/>
<path d="M21.0273 3.41867L21.0273 3.41865C21.6739 2.01977 23.265 1.33765 24.7461 1.80996L33.0361 4.45365C34.5389 4.93288 35.4436 6.44532 35.1312 7.97898C34.5414 10.8736 33.5961 15.1672 32.606 18.2772L33.0825 18.4289L32.606 18.2772C31.6075 21.4139 29.8779 25.4997 28.676 28.2189C28.0432 29.6506 26.4298 30.3604 24.9268 29.8811L16.6406 27.2386C15.1584 26.766 14.256 25.2861 14.5408 23.7702C15.0976 20.8066 16.0208 16.3379 17.055 13.1276C18.0451 10.0542 19.8024 6.06853 21.0273 3.41867Z" stroke="#EE7F1A"/>
<path d="M56.1173 17.1854C56.5012 15.7524 55.6508 14.2794 54.2178 13.8955C52.7847 13.5115 51.3118 14.3619 50.9278 15.7949L48.7584 23.8912C48.3744 25.3242 49.2248 26.7972 50.6579 27.1812C52.0909 27.5652 53.5639 26.7147 53.9479 25.2817L56.1173 17.1854Z" fill="#EE7F1A"/>
<path d="M61.838 19.4774C62.2219 18.0444 61.3715 16.5714 59.9385 16.1874C58.5055 15.8035 57.0325 16.6539 56.6485 18.0869L54.9686 24.3562C54.5847 25.7893 55.4351 27.2622 56.8681 27.6462C58.3012 28.0302 59.7741 27.1798 60.1581 25.7467L61.838 19.4774Z" fill="#EE7F1A"/>
<path d="M39.2898 13.5548C39.6659 12.1051 41.2003 11.2859 42.6142 11.7802C43.8866 12.225 44.5965 13.5798 44.238 14.8791L42.9013 19.7241L37.6992 19.6867L39.2898 13.5548Z" fill="#EE7F1A"/>
<path d="M45.5639 13.0038C45.9513 11.5135 47.5325 10.6753 48.9833 11.1912C50.2792 11.6519 50.9997 13.0349 50.6345 14.3609L49.1205 19.8591L43.7676 19.9133L45.5639 13.0038Z" fill="#EE7F1A"/>
<path fill-rule="evenodd" clip-rule="evenodd" d="M48.4299 23.2233C48.4623 21.74 47.2861 20.5114 45.8029 20.479L37.8439 20.3053C36.9751 20.2864 36.1937 20.682 35.6888 21.3111C35.2941 21.7388 35.0546 22.3115 35.0586 22.9394L35.0893 27.6505C35.1042 29.9396 36.2835 32.0001 38.1203 33.1951C40.0539 34.7386 43.2453 36.9632 46.5124 38.2878L45.9529 59.6866L55.7431 55.351L67.6312 79.6866V38.0083L57.7011 46.26C57.7944 46.1202 58.3445 44.5258 59.799 39.267C62.3165 30.5957 62.1767 26.3999 60.9179 25.281C59.3795 30.4558 55.1837 27.6586 54.3445 26.8195C53.4317 27.6593 52.4998 28.6039 51.6111 29.6037C50.7483 28.4398 49.0008 27.3761 46.8447 26.8394C45.5891 26.5269 44.3721 26.4371 43.3163 26.5398H40.6389V25.7402L45.6856 25.8503C47.1689 25.8827 48.3975 24.7065 48.4299 23.2233ZM47.6152 53.5246L50.9339 52.1635L50.905 52.093L49.8534 50.9219L49.3371 51.1337L49.91 51.8181L47.3466 52.8695L47.6152 53.5246ZM51.9393 55.6386L52.2919 55.494L51.3319 53.1534L50.8201 53.3633L51.4965 55.0124L48.1712 54.8802L48.4548 55.5717L51.9393 55.6386Z" fill="#EE7F1A"/>
<path d="M51.8922 61.1985L53.167 60.5566C53.2587 60.5104 53.3296 60.4559 53.3797 60.3931C53.4317 60.3294 53.4601 60.2565 53.4652 60.1744C53.4712 60.094 53.4493 60.0044 53.3996 59.9057C53.3569 59.8211 53.3051 59.7554 53.2441 59.7088C53.1848 59.6613 53.1194 59.6346 53.0478 59.6286C52.9781 59.6217 52.907 59.6365 52.8347 59.6729L52.4512 58.9112C52.5729 58.8499 52.7026 58.82 52.8403 58.8213C52.978 58.8227 53.1154 58.8563 53.2524 58.9222C53.3912 58.9871 53.5217 59.0816 53.6439 59.2058C53.767 59.3317 53.8751 59.4872 53.9684 59.6723C54.0802 59.8945 54.1426 60.1106 54.1556 60.3207C54.1685 60.5308 54.1258 60.7225 54.0274 60.8958C53.9299 61.0709 53.7701 61.2144 53.5479 61.3263L52.3233 61.9429C52.1664 62.0219 52.0426 62.0964 51.9518 62.1664C51.8628 62.2355 51.7907 62.3072 51.7352 62.3816L51.6903 62.4042L51.3027 61.6345C51.3617 61.5584 51.4445 61.4814 51.5511 61.4034C51.6603 61.3263 51.774 61.258 51.8922 61.1985ZM53.0404 60.7463L52.6119 60.9687L52.3975 60.5429C52.3469 60.4424 52.2915 60.3609 52.2313 60.2983C52.1711 60.2358 52.1078 60.1914 52.0415 60.1651C51.977 60.1379 51.9117 60.1266 51.8455 60.1312C51.7801 60.1376 51.7149 60.1572 51.6496 60.1901C51.5844 60.2229 51.5329 60.2676 51.4951 60.3242C51.459 60.38 51.4402 60.4436 51.4386 60.5151C51.4388 60.5857 51.458 60.659 51.4962 60.7348C51.5539 60.8494 51.627 60.9375 51.7155 60.999C51.8039 61.0606 51.8932 61.0974 51.9833 61.1095C52.0743 61.1234 52.1502 61.1161 52.211 61.0877L51.9895 61.4512C51.903 61.4594 51.8086 61.4583 51.7061 61.448C51.6046 61.4395 51.5008 61.4155 51.3947 61.376C51.2904 61.3357 51.19 61.2746 51.0936 61.1928C50.9989 61.1101 50.9156 60.9973 50.8437 60.8545C50.7522 60.6729 50.7053 60.4898 50.7031 60.3053C50.7034 60.1216 50.7462 59.9542 50.8314 59.803C50.9193 59.6527 51.0461 59.5358 51.2118 59.4523C51.3617 59.3769 51.5091 59.338 51.6538 59.3359C51.7986 59.3337 51.9382 59.3673 52.0726 59.4367C52.2096 59.5069 52.3402 59.6147 52.4642 59.76C52.59 59.9044 52.7079 60.086 52.818 60.3046L53.0404 60.7463ZM53.842 63.7013L53.3905 62.8046L53.8877 62.5477L54.2606 63.2882C54.3103 63.387 54.3604 63.4623 54.4109 63.5143C54.4631 63.5653 54.5166 63.5947 54.5714 63.6025C54.6288 63.6112 54.6875 63.6004 54.7474 63.5703C54.8003 63.5436 54.8404 63.5113 54.8677 63.4732C54.8976 63.4361 54.9156 63.3928 54.9216 63.3433C54.9276 63.2939 54.9217 63.2382 54.9039 63.1765C54.8887 63.1156 54.8625 63.0482 54.8252 62.9741L54.6095 62.5456L52.3375 63.6896L51.954 62.9279L54.8157 61.4869L55.415 62.6771C55.5091 62.864 55.5767 63.04 55.6178 63.2049C55.6606 63.369 55.6756 63.5195 55.6628 63.6564C55.6508 63.7951 55.6083 63.917 55.5353 64.0223C55.465 64.1284 55.362 64.2157 55.2262 64.284C55.138 64.3284 55.0449 64.3499 54.9469 64.3484C54.8498 64.3487 54.7518 64.3251 54.6527 64.2777C54.5537 64.2303 54.456 64.1591 54.3595 64.064C54.2656 63.9698 54.177 63.8509 54.0936 63.7072L53.842 63.7013ZM52.6465 64.3032L52.1005 63.2188L52.8221 63.1837L53.2363 64.0062C53.2833 64.0997 53.3334 64.1706 53.3865 64.219C53.4396 64.2674 53.4953 64.2946 53.5536 64.3007C53.6146 64.3076 53.6768 64.295 53.7403 64.2631C53.802 64.232 53.8491 64.1917 53.8816 64.1421C53.9141 64.0926 53.9277 64.0317 53.9222 63.9593C53.9193 63.8878 53.8926 63.8018 53.842 63.7013L53.4837 62.9898L53.9863 62.7434L54.3938 63.5527L54.286 63.8391C54.3749 64.0463 54.4204 64.2311 54.4226 64.3936C54.4249 64.556 54.3921 64.6929 54.3245 64.8044C54.2595 64.9167 54.1688 65.0021 54.0524 65.0607C53.9166 65.1291 53.7847 65.1635 53.6567 65.1638C53.5287 65.1642 53.405 65.1314 53.2856 65.0655C53.1689 65.0005 53.0565 64.9046 52.9484 64.7778C52.8421 64.6501 52.7415 64.4919 52.6465 64.3032ZM57.3128 66.4461L56.715 66.747L56.1157 65.5568L53.8517 66.6968L53.4682 65.9351L56.3299 64.4941L57.3128 66.4461ZM55.3663 68.9015L58.2876 68.3821L58.6991 69.1994L54.8269 69.7069C54.7422 69.7186 54.6478 69.7242 54.5436 69.7236C54.4403 69.7248 54.3339 69.7087 54.2243 69.6755C54.1138 69.6449 54.0082 69.5887 53.9073 69.5069C53.8073 69.4268 53.7191 69.311 53.6428 69.1593C53.6064 69.087 53.5811 69.0257 53.5668 68.9755C53.5525 68.9252 53.5373 68.8643 53.5212 68.7928L54.0793 68.5118C54.0891 68.5312 54.0993 68.5515 54.1099 68.5727C54.1188 68.5947 54.1282 68.6154 54.1379 68.6348C54.1885 68.7353 54.2413 68.8115 54.2962 68.8635C54.351 68.9154 54.4121 68.9488 54.4792 68.9636C54.5446 68.9793 54.6201 68.98 54.7057 68.9656L55.3663 68.9015ZM57.7456 67.3057L55.985 68.9713L55.2329 69.4859L54.9163 68.9955L57.3341 66.4884L57.7456 67.3057ZM57.1094 71.8167C57.1564 71.9102 57.2158 71.9842 57.2875 72.0387C57.3609 72.0924 57.4404 72.123 57.5261 72.1307C57.6144 72.1393 57.704 72.1219 57.7948 72.0783L58.1557 72.7951C57.9538 72.8946 57.7477 72.9309 57.5375 72.9041C57.3291 72.8764 57.1351 72.7962 56.9555 72.6634C56.7776 72.5297 56.6332 72.3526 56.5223 72.1322C56.4104 71.9101 56.3498 71.6975 56.3404 71.4944C56.3318 71.2932 56.3653 71.105 56.4407 70.93C56.5179 70.7541 56.6301 70.5949 56.7771 70.4523C56.9259 70.3089 57.1008 70.1865 57.3018 70.0853L57.3785 70.0467C57.5813 69.9446 57.7837 69.8769 57.9858 69.8437C58.1897 69.8096 58.3843 69.8143 58.5699 69.8579C58.7572 69.9007 58.9291 69.9854 59.0857 70.1121C59.2424 70.2388 59.3762 70.4123 59.4872 70.6327C59.6052 70.8672 59.6637 71.0953 59.6626 71.3169C59.6623 71.5403 59.6037 71.7444 59.4868 71.9292C59.3726 72.115 59.2022 72.266 58.9756 72.3823L58.6147 71.6655C58.709 71.6158 58.7852 71.552 58.8433 71.4741C58.9022 71.3981 58.9364 71.3123 58.9458 71.2169C58.9579 71.1224 58.9378 71.0232 58.8854 70.9191C58.8295 70.8081 58.7599 70.7292 58.6768 70.6827C58.5955 70.6352 58.5045 70.6125 58.4038 70.6146C58.3049 70.6157 58.2004 70.6341 58.0901 70.6698C57.9825 70.7063 57.8732 70.7525 57.7621 70.8084L57.6854 70.847C57.5743 70.903 57.4712 70.9637 57.376 71.0293C57.2808 71.0949 57.2033 71.1671 57.1435 71.2459C57.0846 71.3264 57.05 71.4134 57.0396 71.507C57.0293 71.6006 57.0525 71.7039 57.1094 71.8167ZM60.9897 73.7486L58.128 75.1895L57.7431 74.4252L60.6049 72.9842L60.9897 73.7486ZM61.4532 74.669L60.8634 74.966L59.5583 72.374L60.1481 72.077L61.4532 74.669ZM60.189 77.6761L61.4638 77.0342C61.5555 76.988 61.6264 76.9335 61.6766 76.8707C61.7285 76.807 61.757 76.7341 61.762 76.6519C61.768 76.5716 61.7461 76.482 61.6964 76.3833C61.6538 76.2987 61.6019 76.233 61.5409 76.1864C61.4816 76.1389 61.4162 76.1122 61.3447 76.1062C61.2749 76.0993 61.2039 76.1141 61.1316 76.1505L60.748 75.3888C60.8697 75.3275 60.9994 75.2976 61.1371 75.2989C61.2749 75.3003 61.4122 75.3339 61.5493 75.3997C61.6881 75.4647 61.8186 75.5592 61.9407 75.6834C62.0638 75.8093 62.172 75.9648 62.2652 76.1499C62.3771 76.3721 62.4395 76.5882 62.4524 76.7983C62.4654 77.0084 62.4227 77.2001 62.3243 77.3734C62.2268 77.5485 62.0669 77.692 61.8447 77.8039L60.6202 78.4205C60.4632 78.4995 60.3394 78.574 60.2487 78.644C60.1597 78.7131 60.0875 78.7848 60.0321 78.8591L59.9871 78.8818L59.5996 78.1121C59.6585 78.036 59.7413 77.959 59.8479 77.881C59.9572 77.8039 60.0709 77.7356 60.189 77.6761ZM61.3372 77.2239L60.9088 77.4463L60.6944 77.0205C60.6438 76.92 60.5883 76.8384 60.5281 76.7759C60.4679 76.7134 60.4047 76.669 60.3384 76.6427C60.2739 76.6155 60.2085 76.6042 60.1423 76.6088C60.077 76.6152 60.0117 76.6348 59.9465 76.6676C59.8812 76.7005 59.8297 76.7452 59.7919 76.8018C59.7558 76.8576 59.737 76.9212 59.7355 76.9927C59.7357 77.0633 59.7549 77.1366 59.793 77.2124C59.8508 77.327 59.9238 77.4151 60.0123 77.4766C60.1008 77.5382 60.19 77.575 60.2801 77.5871C60.3711 77.601 60.447 77.5937 60.5078 77.5653L60.2864 77.9288C60.1999 77.937 60.1054 77.9359 60.003 77.9256C59.9014 77.917 59.7976 77.8931 59.6916 77.8536C59.5873 77.8133 59.4869 77.7522 59.3904 77.6704C59.2957 77.5877 59.2124 77.4749 59.1405 77.3321C59.049 77.1505 59.0022 76.9674 58.9999 76.7829C59.0003 76.5992 59.0431 76.4318 59.1283 76.2806C59.2161 76.1303 59.3429 76.0134 59.5087 75.9299C59.6586 75.8544 59.8059 75.8156 59.9507 75.8135C60.0955 75.8113 60.235 75.8449 60.3694 75.9142C60.5065 75.9845 60.637 76.0923 60.761 76.2376C60.8868 76.382 61.0047 76.5636 61.1148 76.7822L61.3372 77.2239Z" fill="#EE7F1A"/>
</svg>
