<svg width="81" height="81" viewBox="0 0 81 81" fill="none" xmlns="http://www.w3.org/2000/svg">
<g clip-path="url(#clip0_872_11028)">
<path d="M0.03125 35.8396C0.140811 37.1124 0.907737 39.069 3.09896 36.7124C5.83798 33.7666 23.039 21.4379 37.9393 19.2558C41.007 18.2739 41.1166 16.4191 40.7879 14.6735C40.4592 12.9278 40.6784 -0.710092 33.2282 0.59915C25.7781 1.90839 3.5372 10.5275 0.03125 35.8396Z" fill="#F45B5B"/>
<path d="M56.6022 77.6993C57.6464 76.9573 58.9491 75.3007 55.806 74.61C51.8772 73.7466 32.5349 65.1855 23.1203 53.447C20.7219 51.3012 19.0643 52.1502 17.7224 53.3216C16.3806 54.493 4.48891 61.2413 9.3847 66.9995C14.2805 72.7578 32.9651 87.5517 56.6022 77.6993Z" fill="#F45B5B"/>
<path d="M65.0194 7.77025C63.8693 7.22053 61.8009 6.88986 62.7279 9.96498C63.8867 13.8089 65.8551 34.827 60.2495 48.7354C59.5536 51.8684 61.0943 52.9007 62.7612 53.5013C64.4281 54.1019 76.0512 61.1889 78.6663 54.1243C81.2814 47.0597 85.0354 23.5871 65.0194 7.77025Z" fill="#F45B5B"/>
<path d="M3.5938 57.4251C4.03064 58.4398 5.34116 59.8604 7.08852 57.4251C9.27272 54.3809 26.3095 41.3346 35.0463 39.4864C38.4318 38.2904 40.7252 37.8556 40.616 32.8545C40.5286 28.8536 40.5796 25.4615 40.616 24.2656C40.8708 23.2147 40.1136 21.5259 35.0463 23.1784C28.7121 25.2441 12.9859 32.9632 2.93854 41.4433C-0.66539 44.7049 0.0990798 46.1182 0.0990798 47.749C0.0990798 49.0537 2.42889 54.7433 3.5938 57.4251Z" fill="#FFBEBE"/>
<path d="M73.6053 63.7248C74.2643 62.8295 74.8321 60.9716 71.8315 60.7034C68.0808 60.368 48.1101 52.2944 42.0714 45.6837C39.315 43.3668 37.7735 41.6059 33.4884 44.2518C30.0602 46.3685 27.0903 48.055 26.0338 48.6336C24.9923 48.9495 23.9109 50.4657 27.9172 54.0037C32.9251 58.4262 47.6069 68.0847 60.0668 72.4449C64.7269 73.8968 65.5656 72.5148 66.981 71.6828C68.1133 71.0172 71.869 66.1002 73.6053 63.7248Z" fill="#FFBEBE"/>
<path d="M44.3626 0.023544C43.2598 -0.115356 41.3616 0.294511 42.5912 3.04518C44.1282 6.48351 46.8249 27.856 44.0019 36.351C43.3247 39.8871 42.54 42.0914 46.9393 44.5431C50.4587 46.5045 53.3792 48.2755 54.3995 48.9158C55.1832 49.6712 57.0339 49.8763 58.167 44.6536C59.5833 38.1252 60.8496 20.598 58.5765 7.5935C57.5702 2.81694 55.955 2.75836 54.5385 1.92811C53.4053 1.2639 47.2824 0.381646 44.3626 0.023544Z" fill="#FFBEBE"/>
</g>
<defs>
<clipPath id="clip0_872_11028">
<rect width="81" height="81" fill="white"/>
</clipPath>
</defs>
</svg>
