<svg width="21" height="19" viewBox="0 0 21 19" fill="none" xmlns="http://www.w3.org/2000/svg">
<path d="M11.1429 6.07143C11.1429 9.14844 8.64844 11.6429 5.57143 11.6429C2.49441 11.6429 0 9.14844 0 6.07143C0 2.99441 2.49441 0.5 5.57143 0.5C8.64844 0.5 11.1429 2.99441 11.1429 6.07143Z" fill="#FE6871"/>
<path d="M20.5714 6.07143C20.5714 9.14844 18.077 11.6429 15 11.6429C11.923 11.6429 9.42857 9.14844 9.42857 6.07143C9.42857 2.99441 11.923 0.5 15 0.5C18.077 0.5 20.5714 2.99441 20.5714 6.07143Z" fill="#FE6871"/>
<path d="M20.5714 6.44089C20.5714 13.101 10.2857 18.5 10.2857 18.5C10.2857 18.5 0 13.101 0 6.44089C0 -0.219178 4.60507 5.04945 10.2857 5.04945C15.9664 5.04945 20.5714 -0.219178 20.5714 6.44089Z" fill="#FE6871"/>
</svg>
