<svg width="18" height="18" viewBox="0 0 18 18" fill="none" xmlns="http://www.w3.org/2000/svg">
<path d="M7.84872 0.873396C8.2111 -0.291132 9.7889 -0.291132 10.1513 0.873397L11.446 5.0342C11.6081 5.55499 12.0729 5.9076 12.5973 5.9076H16.7872C17.9598 5.9076 18.4474 7.47446 17.4987 8.19418L14.109 10.7657C13.6847 11.0876 13.5072 11.6581 13.6693 12.1789L14.964 16.3397C15.3264 17.5042 14.0499 18.4726 13.1012 17.7529L9.71153 15.1814C9.28725 14.8595 8.71275 14.8595 8.28847 15.1814L4.8988 17.7529C3.9501 18.4726 2.67362 17.5042 3.036 16.3397L4.33074 12.1789C4.49279 11.6581 4.31526 11.0876 3.89099 10.7657L0.501316 8.19418C-0.447388 7.47446 0.0401817 5.9076 1.21284 5.9076H5.40271C5.92714 5.9076 6.39193 5.55499 6.55398 5.0342L7.84872 0.873396Z" fill="#FFC633"/>
</svg>
