<svg width="44" height="44" viewBox="0 0 44 44" fill="none" xmlns="http://www.w3.org/2000/svg">
<mask id="mask0_705_10191" style="mask-type:alpha" maskUnits="userSpaceOnUse" x="0" y="0" width="44" height="44">
<circle cx="22" cy="22" r="22" fill="#D9D9D9"/>
</mask>
<g mask="url(#mask0_705_10191)">
<rect x="0.230469" width="44.2291" height="44.2291" rx="22.1145" fill="#48ACDE"/>
<path d="M31.1914 13.9349L27.8683 31.2838C27.8683 31.2838 27.4033 32.4867 26.126 31.9098L18.4585 25.8219L18.423 25.804C19.4587 24.8409 27.4899 17.3632 27.8409 17.0242C28.3843 16.4993 28.0469 16.1868 27.416 16.5833L15.5529 24.3849L10.9761 22.7902C10.9761 22.7902 10.2559 22.5249 10.1866 21.948C10.1164 21.3702 10.9998 21.0577 10.9998 21.0577L29.6579 13.478C29.6579 13.478 31.1914 12.7802 31.1914 13.9349Z" fill="white"/>
</g>
</svg>
