<svg width="33" height="33" viewBox="0 0 33 33" fill="none" xmlns="http://www.w3.org/2000/svg">
<rect width="32.0772" height="32.0772" rx="16.0386" fill="#076594"/>
<path d="M16.8259 21.6518C10.7982 21.6518 7.36005 17.4375 7.2168 10.4248H10.2362C10.3354 15.5719 12.5613 17.7521 14.3245 18.2017V10.4248H17.1675V14.8639C18.9086 14.6729 20.7379 12.65 21.355 10.4248H24.1981C23.9655 11.5788 23.502 12.6715 22.8365 13.6345C22.1709 14.5975 21.3177 15.4101 20.3302 16.0215C21.4325 16.5801 22.4061 17.3707 23.1868 18.3412C23.9675 19.3118 24.5375 20.4401 24.8592 21.6518H21.7297C21.4409 20.5994 20.8539 19.6573 20.0424 18.9436C19.2308 18.2299 18.2308 17.7763 17.1675 17.6398V21.6518H16.8259Z" fill="white"/>
</svg>
