<svg width="51" height="53" viewBox="0 0 51 53" fill="none" xmlns="http://www.w3.org/2000/svg">
<rect x="2" y="5" width="48" height="48" rx="6.22222" fill="white"/>
<path d="M13.5812 17.1992C13.1955 17.1992 12.8808 17.5122 12.9018 17.8973C13.0784 21.1439 14.4818 24.2226 16.8564 26.533C19.4006 29.0085 22.8514 30.3992 26.4495 30.3992C30.0476 30.3992 33.4983 29.0085 36.0426 26.533C38.4172 24.2226 39.8206 21.1439 39.9972 17.8973C40.0181 17.5122 39.7035 17.1992 39.3177 17.1992L13.5812 17.1992Z" fill="#5477D8"/>
<path d="M25.716 41.7922C25.716 42.3857 26.1975 42.87 26.79 42.8359C28.8786 42.7158 30.9348 42.2459 32.8722 41.4433C35.141 40.5036 37.2025 39.1262 38.9389 37.3897C40.6754 35.6532 42.0528 33.5918 42.9926 31.323C43.9323 29.0542 44.416 26.6225 44.416 24.1668C44.416 21.7111 43.9323 19.2794 42.9926 17.0106C42.0528 14.7418 40.6754 12.6804 38.9389 10.9439C37.2025 9.20744 35.141 7.83001 32.8722 6.89025C30.9348 6.08774 28.8786 5.61781 26.79 5.49766C26.1975 5.46358 25.716 5.94791 25.716 6.5414V6.5414C25.716 7.13488 26.1976 7.61237 26.7899 7.65087C28.596 7.7683 30.3731 8.18137 32.0497 8.87585C34.0578 9.70761 35.8823 10.9267 37.4192 12.4636C38.9561 14.0005 40.1752 15.825 41.007 17.8331C41.8387 19.8411 42.2668 21.9933 42.2668 24.1668C42.2668 26.3403 41.8387 28.4925 41.007 30.5005C40.1752 32.5085 38.9561 34.3331 37.4192 35.87C35.8823 37.4069 34.0578 38.626 32.0497 39.4577C30.3731 40.1522 28.596 40.5653 26.7899 40.6827C26.1976 40.7212 25.716 41.1987 25.716 41.7922V41.7922Z" fill="#00EFD8"/>
<path d="M23.7536 6.67104C23.6889 6.07972 23.1564 5.64969 22.5696 5.74723C19.4651 6.26325 16.5363 7.53075 14.0468 9.43548C13.5676 9.80212 13.5222 10.4964 13.922 10.9483V10.9483C14.3142 11.3917 14.9878 11.4345 15.46 11.0775C17.6139 9.44907 20.1338 8.35627 22.8043 7.89246C23.3903 7.79067 23.8182 7.26237 23.7536 6.67104V6.67104Z" fill="#00EFD8"/>
<path d="M23.8828 29.666H29.0161V49.0994C29.0161 50.5169 27.867 51.666 26.4495 51.666V51.666C25.0319 51.666 23.8828 50.5169 23.8828 49.0993V29.666Z" fill="#5477D8"/>
<mask id="mask0_721_10069" style="mask-type:alpha" maskUnits="userSpaceOnUse" x="12" y="17" width="29" height="14">
<path d="M13.3761 17.0879C12.9904 17.0879 12.6758 17.4008 12.6959 17.786C12.8698 21.1239 14.2858 24.29 16.6848 26.665C19.2504 29.205 22.7302 30.632 26.3586 30.632C29.987 30.632 33.4668 29.205 36.0325 26.665C38.4314 24.29 39.8475 21.1239 40.0213 17.786C40.0414 17.4008 39.7268 17.0879 39.3411 17.0879L13.3761 17.0879Z" fill="#5477D8"/>
</mask>
<g mask="url(#mask0_721_10069)">
<path d="M37.0306 25.2967C27.7276 31.6446 17.4669 22.4693 13.4995 17.0882V16.6777L11.3105 17.0882L13.4995 24.4758L21.024 32.0003L32.1055 31.0427C33.7016 29.9026 36.9212 27.1573 37.0306 25.2967Z" fill="#84A5FF"/>
</g>
<path d="M8.48164 17.5665C8.48164 19.8296 8.93688 22.0705 9.82136 24.1614C10.7058 26.2522 12.0023 28.152 13.6366 29.7523C15.2709 31.3525 17.2111 32.6219 19.3464 33.488C21.4817 34.354 23.7704 34.7998 26.0816 34.7998L26.0816 32.8192C24.036 32.8192 22.0104 32.4246 20.1205 31.6581C18.2306 30.8916 16.5134 29.7681 15.0669 28.3518C13.6204 26.9354 12.473 25.254 11.6902 23.4034C10.9073 21.5529 10.5044 19.5695 10.5044 17.5665L8.48164 17.5665Z" fill="#FFE07C"/>
<path d="M23.8828 30.3994H27.5495V49.0994C27.5495 50.1119 26.7287 50.9327 25.7161 50.9327V50.9327C24.7036 50.9327 23.8828 50.1119 23.8828 49.0994V30.3994Z" fill="#84A5FF"/>
</svg>
