<svg width="48" height="48" viewBox="0 0 48 48" fill="none" xmlns="http://www.w3.org/2000/svg">
<path d="M5.71484 23.1848C5.71484 22.8847 5.95817 22.6413 6.25832 22.6413H17.3996C17.6998 22.6413 17.9431 22.8847 17.9431 23.1848V41.1196C17.9431 41.4198 17.6998 41.6631 17.3996 41.6631H6.25832C5.95817 41.6631 5.71484 41.4198 5.71484 41.1196V23.1848Z" fill="#84A5FF"/>
<path d="M41.0409 27.2609C41.3411 27.2609 41.5844 27.5042 41.5844 27.8044V36.5C41.5844 36.8002 41.3411 37.0435 41.0409 37.0435L11.6931 37.0435C11.3929 37.0435 11.1496 36.8002 11.1496 36.5L11.1496 27.8044C11.1496 27.5042 11.393 27.2609 11.6931 27.2609L41.0409 27.2609Z" fill="#84A5FF"/>
<path d="M42.9431 32.6957C43.2433 32.6957 43.4866 32.939 43.4866 33.2392V41.6631C43.4866 41.9632 43.2433 42.2066 42.9431 42.2066H35.8779C35.5777 42.2066 35.3344 41.9632 35.3344 41.6631V33.2392C35.3344 32.939 35.5777 32.6957 35.8779 32.6957H42.9431Z" fill="#84A5FF"/>
<path d="M38.3235 16.6631C38.6237 16.6631 38.867 16.9064 38.867 17.2066V31.8805C38.867 32.1806 38.6237 32.424 38.3235 32.424H32.8888C32.5886 32.424 32.3453 32.1806 32.3453 31.8805V17.2066C32.3453 16.9064 32.5886 16.6631 32.8888 16.6631L38.3235 16.6631Z" fill="#84A5FF"/>
<path d="M37.5373 14.7608C38.1216 14.7608 38.5995 14.2864 38.5549 13.7038C38.4462 12.2816 38.1184 10.8834 37.5817 9.56128C36.9126 7.91284 35.9318 6.41502 34.6953 5.15336C33.4589 3.89169 31.9911 2.89088 30.3756 2.20807C28.7601 1.52527 27.0286 1.17383 25.2801 1.17383C23.5315 1.17383 21.8 1.52527 20.1845 2.20807C18.5691 2.89088 17.1012 3.89169 15.8648 5.15336C14.6283 6.41502 13.6476 7.91284 12.9784 9.56128C12.4417 10.8834 12.1139 12.2816 12.0052 13.7038C11.9606 14.2864 12.4385 14.7608 13.0228 14.7608V14.7608C13.6071 14.7608 14.0758 14.2862 14.1287 13.7043C14.2323 12.5658 14.5029 11.4476 14.9332 10.3875C15.4961 9.00103 16.321 7.74123 17.3609 6.68006C18.4009 5.61888 19.6355 4.77711 20.9943 4.2028C22.353 3.6285 23.8093 3.33291 25.2801 3.33291C26.7508 3.33291 28.2071 3.6285 29.5659 4.2028C30.9246 4.77711 32.1592 5.61888 33.1992 6.68006C34.2391 7.74123 35.0641 9.00103 35.6269 10.3875C36.0572 11.4476 36.3278 12.5658 36.4314 13.7043C36.4844 14.2862 36.953 14.7608 37.5373 14.7608V14.7608Z" fill="#00EFD8"/>
<path d="M32.8911 14.7604C33.4899 14.7604 33.9819 14.2733 33.9118 13.6787C33.8168 12.8726 33.6159 12.0819 33.3134 11.3287C32.8764 10.2407 32.2359 9.25216 31.4284 8.41946C30.6209 7.58676 29.6623 6.92622 28.6073 6.47557C27.5523 6.02492 26.4216 5.79297 25.2796 5.79297C24.1377 5.79297 23.007 6.02492 21.952 6.47557C20.8969 6.92622 19.9383 7.58676 19.1309 8.41946C18.3234 9.25216 17.6829 10.2407 17.2459 11.3287C16.8089 12.4167 16.584 13.5827 16.584 14.7604H18.7523C18.7523 13.8764 18.9212 13.0011 19.2492 12.1844C19.5772 11.3677 20.058 10.6257 20.6641 10.0006C21.2703 9.37557 21.9898 8.87975 22.7817 8.54147C23.5737 8.2032 24.4225 8.02909 25.2796 8.02909C26.1368 8.02909 26.9856 8.2032 27.7775 8.54147C28.5695 8.87975 29.289 9.37557 29.8951 10.0006C30.5012 10.6257 30.982 11.3677 31.3101 12.1844C31.5036 12.6662 31.6417 13.1683 31.7224 13.6806C31.8156 14.2721 32.2923 14.7604 32.8911 14.7604V14.7604Z" fill="#00EFD8"/>
<path d="M9.21977 14.7605C8.63447 14.7605 8.14976 15.2392 8.26048 15.8139C8.32803 16.1646 8.42932 16.5085 8.56334 16.8403C8.82964 17.4997 9.21995 18.0988 9.712 18.6035C10.2041 19.1082 10.7882 19.5085 11.4311 19.7816C12.074 20.0547 12.763 20.1953 13.4589 20.1953C14.1548 20.1953 14.8438 20.0547 15.4867 19.7816C16.1296 19.5085 16.7137 19.1082 17.2058 18.6035C17.6978 18.0988 18.0882 17.4997 18.3545 16.8403C18.6208 16.181 18.7578 15.4742 18.7578 14.7605L16.6382 14.7605C16.6382 15.1888 16.556 15.6128 16.3962 16.0084C16.2365 16.404 16.0023 16.7635 15.707 17.0663C15.4118 17.3691 15.0613 17.6093 14.6756 17.7732C14.2898 17.9371 13.8764 18.0214 13.4589 18.0214C13.0414 18.0214 12.628 17.9371 12.2422 17.7732C11.8565 17.6093 11.506 17.3691 11.2108 17.0663C10.9155 16.7635 10.6813 16.404 10.5216 16.0084C10.4942 15.9406 10.4691 15.872 10.4463 15.8026C10.2634 15.2466 9.80507 14.7605 9.21977 14.7605V14.7605Z" fill="#00EFD8"/>
<rect x="17.9434" y="30.5215" width="21.1957" height="2.17391" fill="#5477D8"/>
<rect x="8.43359" y="24.2715" width="7.06522" height="7.06522" rx="0.543478" fill="#FFE07C"/>
<mask id="mask0_721_10080" style="mask-type:alpha" maskUnits="userSpaceOnUse" x="8" y="24" width="8" height="8">
<rect x="8.42969" y="24.2715" width="7.06522" height="7.06522" rx="0.543478" fill="#FFE07C"/>
</mask>
<g mask="url(#mask0_721_10080)">
<path d="M15.6308 24.1357L8.42969 31.3368V24.1357H15.6308Z" fill="#FFCC25"/>
</g>
<circle cx="9.65489" cy="40.984" r="5.84239" fill="#5477D8"/>
<circle cx="22.9713" cy="40.984" r="5.84239" fill="#5477D8"/>
<circle cx="35.7428" cy="40.984" r="5.84239" fill="#5477D8"/>
<circle cx="9.65574" cy="40.9839" r="2.58152" fill="#84A5FF"/>
<circle cx="22.9682" cy="40.9839" r="2.58152" fill="#84A5FF"/>
<circle cx="35.7436" cy="40.9839" r="2.58152" fill="#84A5FF"/>
</svg>
